<svg width="50" height="50" viewBox="0 0 50 50" fill="none" xmlns="http://www.w3.org/2000/svg">
<rect width="50" height="50" rx="12" fill="white"/>
<path d="M26.2 35.4455H29.9943V28.3682H34.0034C38.8409 28.3682 41.4387 25.4636 41.4387 21.4341C41.4387 17.4352 38.8716 14.5 34.0546 14.5H26.2V35.4455ZM29.9943 25.2489V17.6705H33.4716C36.3148 17.6705 37.5727 19.2045 37.5727 21.4341C37.5727 23.6636 36.3148 25.2489 33.4921 25.2489H29.9943Z" fill="#222222"/>
<path d="M29.9943 25.2489V17.6705H33.4716C36.3148 17.6705 37.5727 19.2046 37.5727 21.4341C37.5727 23.6637 36.3148 25.2489 33.4921 25.2489H29.9943Z" fill="#F79410"/>
<path d="M23.8103 26.4659L17.5614 35.4455H13L21.1716 23.8989L13.0716 14.5H17.7046L25.7 23.8989L23.8103 26.4659Z" fill="#222222"/>
</svg>
