<svg width="144" height="144" viewBox="0 0 144 144" fill="none" xmlns="http://www.w3.org/2000/svg">
<g clip-path="url(#clip0_790_27)">
<path d="M72.03 144.06C111.811 144.06 144.06 111.811 144.06 72.03C144.06 32.2489 111.811 0 72.03 0C32.2489 0 0 32.2489 0 72.03C0 111.811 32.2489 144.06 72.03 144.06Z" fill="#F9F9F9"/>
<g clip-path="url(#clip1_790_27)">
<path d="M33.3792 33.3792C43.6221 23.1363 57.5144 17.3819 72 17.3819C86.4856 17.3819 100.378 23.1363 110.621 33.3792C120.864 43.6221 126.618 57.5144 126.618 72C126.618 86.4856 120.864 100.378 110.621 110.621C100.378 120.864 86.4856 126.618 72 126.618C57.5144 126.618 43.6221 120.864 33.3792 110.621C23.1363 100.378 17.3819 86.4856 17.3819 72C17.3819 57.5144 23.1363 43.6221 33.3792 33.3792ZM45.8027 106.3C54.1108 112.645 64.4398 115.76 74.8709 115.064C85.3021 114.369 95.1262 109.911 102.519 102.519C109.911 95.1262 114.369 85.3021 115.064 74.8709C115.76 64.4398 112.645 54.1108 106.3 45.8027L45.8027 106.3ZM98.1973 37.7004C89.8892 31.3548 79.5602 28.2405 69.1291 28.9359C58.6979 29.6313 48.8738 34.0892 41.4815 41.4815C34.0892 48.8738 29.6313 58.6979 28.9359 69.129C28.2405 79.5602 31.3548 89.8892 37.7004 98.1973L98.1973 37.7004Z" fill="#FF0000"/>
</g>
</g>
<defs>
<clipPath id="clip0_790_27">
<rect width="144" height="144" fill="white"/>
</clipPath>
<clipPath id="clip1_790_27">
<rect width="110" height="110" fill="white" transform="translate(17 17)"/>
</clipPath>
</defs>
</svg>
