<svg width="144" height="144" viewBox="0 0 144 144" fill="none" xmlns="http://www.w3.org/2000/svg">
<g clip-path="url(#clip0_828_2)">
<path d="M72 144C111.765 144 144 111.765 144 72C144 32.2355 111.765 0 72 0C32.2355 0 0 32.2355 0 72C0 111.765 32.2355 144 72 144Z" fill="#FFDBA8"/>
<path d="M98.1411 68.9745L96.2739 68.2278C87.4986 87.9729 52.5888 75.9688 50.4882 81.8427C50.138 85.8105 69.5524 82.5972 83.4317 83.2697C87.6642 83.4747 89.7865 86.6697 87.9894 91.8774L91.5292 91.8883C95.6126 79.1586 108.644 85.6551 109.189 81.4539C108.294 78.6917 94.212 81.4539 98.1411 68.9745Z" fill="white"/>
<path d="M88.9917 89.7006C89.5518 87.8334 89.3651 85.9663 88.4317 84.8458C87.4979 83.7254 86.1908 82.9787 84.5103 82.792L52.0207 82.4183C51.834 82.4183 51.6473 82.2316 51.4607 82.2316C51.274 82.045 51.274 81.8583 51.4607 81.6716C51.6473 81.2982 51.834 81.1112 52.2074 81.1112L84.8837 80.7378C88.805 80.5512 92.913 77.3769 94.4065 73.6426L96.274 68.7879C96.274 68.6008 96.4607 68.4142 96.274 68.2275C94.2198 58.7047 85.6308 51.6091 75.5476 51.6091C66.2115 51.6091 58.1825 57.5843 55.3816 65.987C53.5145 64.6799 51.274 63.9328 48.6598 64.1198C44.1784 64.4932 40.6308 68.2275 40.0704 72.7089C39.8837 73.8293 40.0704 74.9497 40.2574 76.0698C32.9752 76.2565 27 82.2316 27 89.7006C27 90.4473 27 91.0077 27.1867 91.7544C27.1867 92.1281 27.56 92.3148 27.7471 92.3148H87.6846C88.058 92.3148 88.4317 92.1281 88.4317 91.7544L88.9917 89.7006Z" fill="#F4811F"/>
<path d="M99.2614 68.7877H98.3277C98.141 68.7877 97.9543 68.9744 97.7676 69.1611L96.4605 73.6424C95.9005 75.5096 96.0872 77.3771 97.0209 78.4972C97.9543 79.6176 99.2614 80.3643 100.942 80.5514L107.851 80.9247C108.037 80.9247 108.224 81.1114 108.411 81.1114C108.598 81.2981 108.598 81.4848 108.411 81.6714C108.224 82.0451 108.037 82.2318 107.664 82.2318L100.569 82.6052C96.6472 82.7919 92.5395 85.9661 91.0458 89.7004L90.672 91.3812C90.4854 91.5679 90.672 91.9413 91.0458 91.9413H115.693C116.066 91.9413 116.253 91.7546 116.253 91.3812C116.626 89.8874 117 88.207 117 86.5262C117 76.8167 108.971 68.7877 99.2614 68.7877Z" fill="#FAAD3F"/>
</g>
<defs>
<clipPath id="clip0_828_2">
<rect width="144" height="144" fill="white"/>
</clipPath>
</defs>
</svg>
