<svg width="144" height="144" viewBox="0 0 144 144" fill="none" xmlns="http://www.w3.org/2000/svg">
<g clip-path="url(#clip0_823_2)">
<path d="M72.03 144.06C111.811 144.06 144.06 111.811 144.06 72.03C144.06 32.2489 111.811 0 72.03 0C32.2489 0 0 32.2489 0 72.03C0 111.811 32.2489 144.06 72.03 144.06Z" fill="#FF633C"/>
<path opacity="0.5" fill-rule="evenodd" clip-rule="evenodd" d="M80.9253 33.4296C79.4749 32.8333 77.6361 32.8333 73.9583 32.8333C70.2806 32.8333 68.4417 32.8333 66.9914 33.4296C65.0573 34.2246 63.5208 35.7496 62.7197 37.6689C62.354 38.5451 62.2109 39.5641 62.1549 41.0504C62.0726 43.2347 60.9439 45.2565 59.0365 46.3495C57.1291 47.4423 54.8005 47.4015 52.8533 46.3801C51.5283 45.6851 50.5676 45.2986 49.6201 45.1748C47.5447 44.9036 45.4457 45.4618 43.785 46.7265C42.5394 47.6751 41.6199 49.2555 39.7811 52.4164C37.9423 55.5773 37.0229 57.1577 36.8179 58.7025C36.5447 60.7623 37.1071 62.8454 38.3815 64.4937C38.9631 65.2461 39.7806 65.8782 41.0493 66.6694C42.9145 67.8326 44.1146 69.8141 44.1145 72C44.1143 74.1859 42.9143 76.1669 41.0493 77.3298C39.7804 78.1213 38.9628 78.7539 38.3811 79.5063C37.1067 81.1544 36.5443 83.2373 36.8176 85.2971C37.0225 86.8418 37.9419 88.4226 39.7807 91.5833C41.6195 94.7441 42.539 96.3248 43.7846 97.2731C45.4453 98.5377 47.5443 99.0959 49.6197 98.8248C50.5671 98.7011 51.5278 98.3145 52.8527 97.6197C54.8 96.5982 57.1288 96.5575 59.0363 97.6502C60.9438 98.7434 62.0725 100.765 62.1549 102.95C62.2109 104.436 62.354 105.455 62.7197 106.331C63.5208 108.25 65.0573 109.775 66.9914 110.571C68.4417 111.167 70.2806 111.167 73.9583 111.167C77.6361 111.167 79.4749 111.167 80.9253 110.571C82.8593 109.775 84.3958 108.25 85.1968 106.331C85.5626 105.455 85.706 104.436 85.762 102.949C85.8442 100.765 86.9726 98.7434 88.88 97.6502C90.7875 96.5571 93.1163 96.5982 95.0637 97.6197C96.3887 98.3145 97.349 98.7007 98.2965 98.8244C100.372 99.0959 102.471 98.5377 104.132 97.2731C105.377 96.3244 106.297 94.7441 108.136 91.5829C109.974 88.4222 110.894 86.8418 111.099 85.2971C111.372 83.2373 110.809 81.154 109.535 79.5059C108.953 78.7535 108.136 78.1209 106.867 77.3298C105.002 76.1669 103.802 74.1855 103.802 71.9996C103.802 69.8137 105.002 67.833 106.867 66.6702C108.136 65.8786 108.954 65.2465 109.536 64.4937C110.81 62.8457 111.372 60.7626 111.099 58.7028C110.894 57.158 109.975 55.5775 108.136 52.4166C106.297 49.2558 105.378 47.6753 104.132 46.7268C102.471 45.4621 100.372 44.9039 98.2969 45.1751C97.3494 45.2988 96.3887 45.6853 95.0641 46.3803C93.1167 47.4017 90.7878 47.4426 88.8804 46.3496C86.973 45.2566 85.8442 43.2346 85.7616 41.0502C85.7056 39.564 85.5626 38.5451 85.1968 37.6689C84.3958 35.7496 82.8593 34.2246 80.9253 33.4296Z" fill="white"/>
<path d="M85.7972 72C85.7972 78.4895 80.4968 83.75 73.9579 83.75C67.419 83.75 62.1184 78.4895 62.1184 72C62.1184 65.5105 67.419 60.25 73.9579 60.25C80.4968 60.25 85.7972 65.5105 85.7972 72Z" fill="white"/>
</g>
<defs>
<clipPath id="clip0_823_2">
<rect width="144" height="144" fill="white"/>
</clipPath>
</defs>
</svg>
