<svg width="144" height="144" viewBox="0 0 144 144" fill="none" xmlns="http://www.w3.org/2000/svg">
<g clip-path="url(#clip0_779_3)">
<path d="M86.0773 34C85.1 35.7395 84.2225 37.5391 83.4249 39.3786C75.8465 38.2389 68.1286 38.2389 60.5304 39.3786C59.7526 37.5391 58.8551 35.7395 57.878 34C50.7583 35.2197 43.8182 37.3591 37.2371 40.3783C24.1943 59.7532 20.6645 78.6282 22.4195 97.2433C30.0576 102.902 38.6131 107.221 47.727 109.98C49.7811 107.221 51.596 104.281 53.1515 101.222C50.1999 100.123 47.3481 98.743 44.6159 97.1434C45.3338 96.6235 46.0319 96.0837 46.7099 95.5638C62.7241 103.122 81.271 103.122 97.3051 95.5638C97.9832 96.1237 98.6812 96.6635 99.3991 97.1434C96.667 98.7629 93.8151 100.123 90.8436 101.242C92.3992 104.302 94.2139 107.241 96.2681 110C105.382 107.241 113.937 102.942 121.576 97.2834C123.65 75.689 118.026 56.9739 106.718 40.3983C100.157 37.3792 93.2168 35.2397 86.0972 34.04L86.0773 34ZM55.3851 85.7864C50.4592 85.7864 46.3709 81.3075 46.3709 75.769C46.3709 70.2305 50.2997 65.7317 55.3652 65.7317C60.4307 65.7317 64.4591 70.2505 64.3794 75.769C64.2996 81.2876 60.4108 85.7864 55.3851 85.7864ZM88.61 85.7864C83.6641 85.7864 79.6158 81.3075 79.6158 75.769C79.6158 70.2305 83.5445 65.7317 88.61 65.7317C93.6756 65.7317 97.6841 70.2505 97.6042 75.769C97.5245 81.2876 93.6356 85.7864 88.61 85.7864Z" fill="#5865F2"/>
</g>
<defs>
<clipPath id="clip0_779_3">
<rect width="100" height="76" fill="white" transform="translate(22 34)"/>
</clipPath>
</defs>
</svg>
