<svg width="144" height="144" viewBox="0 0 144 144" fill="none" xmlns="http://www.w3.org/2000/svg">
<g clip-path="url(#clip0_779_3)">
<path d="M72.03 144.06C111.811 144.06 144.06 111.811 144.06 72.03C144.06 32.2489 111.811 0 72.03 0C32.2489 0 0 32.2489 0 72.03C0 111.811 32.2489 144.06 72.03 144.06Z" fill="#5865F2"/>
<g clip-path="url(#clip1_779_3)">
<path d="M84.1064 39C83.266 40.5106 82.5114 42.0734 81.8254 43.6709C75.308 42.6812 68.6706 42.6812 62.1361 43.6709C61.4672 42.0734 60.6954 40.5106 59.8551 39C53.7322 40.0592 47.7636 41.9171 42.1039 44.539C30.8871 61.3647 27.8514 77.7561 29.3607 93.9218C35.9295 98.8358 43.2873 102.586 51.1252 104.983C52.8918 102.586 54.4525 100.034 55.7903 97.3773C53.2519 96.4223 50.7993 95.2242 48.4497 93.8351C49.0671 93.3836 49.6674 92.9148 50.2505 92.4633C64.0227 99.0269 79.9731 99.0269 93.7624 92.4633C94.3455 92.9495 94.9458 93.4183 95.5632 93.8351C93.2136 95.2415 90.761 96.4223 88.2055 97.3947C89.5433 100.051 91.104 102.604 92.8706 105C100.708 102.604 108.066 98.8705 114.635 93.9566C116.419 75.2036 111.582 58.951 101.857 44.5564C96.215 41.9345 90.2465 40.0766 84.1236 39.0347L84.1064 39ZM57.7112 83.9724C53.4749 83.9724 49.959 80.0829 49.959 75.2731C49.959 70.4634 53.3377 66.5564 57.6941 66.5564C62.0504 66.5564 65.5148 70.4807 65.4462 75.2731C65.3777 80.0655 62.0332 83.9724 57.7112 83.9724ZM86.2846 83.9724C82.0311 83.9724 78.5496 80.0829 78.5496 75.2731C78.5496 70.4634 81.9283 66.5564 86.2846 66.5564C90.641 66.5564 94.0883 70.4807 94.0196 75.2731C93.951 80.0655 90.6066 83.9724 86.2846 83.9724Z" fill="white"/>
</g>
</g>
<defs>
<clipPath id="clip0_779_3">
<rect width="144" height="144" fill="white"/>
</clipPath>
<clipPath id="clip1_779_3">
<rect width="86" height="66" fill="white" transform="translate(29 39)"/>
</clipPath>
</defs>
</svg>
