<svg width="144" height="144" viewBox="0 0 144 144" fill="none" xmlns="http://www.w3.org/2000/svg">
<g clip-path="url(#clip0_784_39)">
<path d="M117 72C117 47.1474 96.8526 27 72 27C47.1474 27 27 47.1474 27 72C27 93.1032 41.5296 110.812 61.1298 115.675V85.752H51.8508V72H61.1298V66.0744C61.1298 50.7582 68.0616 43.659 83.0988 43.659C85.95 43.659 90.8694 44.2188 92.8818 44.7768V57.2418C91.8198 57.1302 89.9748 57.0744 87.6834 57.0744C80.3052 57.0744 77.454 59.8698 77.454 67.1364V72H92.1528L89.6274 85.752H77.454V116.671C99.7326 113.98 117 95.0076 117 72Z" fill="#0866FF"/>
<path d="M89.6257 85.752L92.1511 72H77.4523V67.1364C77.4523 59.8698 80.3035 57.0744 87.6817 57.0744C89.9731 57.0744 91.8181 57.1302 92.8801 57.2418V44.7768C90.8677 44.217 85.9483 43.659 83.0971 43.659C68.0599 43.659 61.1281 50.7582 61.1281 66.0744V72H51.8491V85.752H61.1281V115.675C64.6093 116.539 68.2507 117 71.9983 117C73.8433 117 75.6631 116.887 77.4505 116.671V85.752H89.6257Z" fill="white"/>
</g>
<defs>
<clipPath id="clip0_784_39">
<rect width="90" height="90" fill="white" transform="translate(27 27)"/>
</clipPath>
</defs>
</svg>
