<svg width="144" height="144" viewBox="0 0 144 144" fill="none" xmlns="http://www.w3.org/2000/svg">
<g clip-path="url(#clip0_784_39)">
<path d="M72.03 144.06C111.811 144.06 144.06 111.811 144.06 72.03C144.06 32.2489 111.811 0 72.03 0C32.2489 0 0 32.2489 0 72.03C0 111.811 32.2489 144.06 72.03 144.06Z" fill="#F9F9F9"/>
<g clip-path="url(#clip1_784_39)">
<path d="M127 72C127 41.6246 102.375 17 72 17C41.6246 17 17 41.6246 17 72C17 97.7928 34.7584 119.436 58.7142 125.381V88.808H47.3732V72H58.7142V64.7576C58.7142 46.0378 67.1864 37.361 85.5652 37.361C89.05 37.361 95.0626 38.0452 97.5222 38.7272V53.9622C96.2242 53.8258 93.9692 53.7576 91.1686 53.7576C82.1508 53.7576 78.666 57.1742 78.666 66.0556V72H96.6312L93.5446 88.808H78.666V126.597C105.895 123.308 127 100.12 127 72Z" fill="#0866FF"/>
<path d="M93.5425 88.808L96.6291 72H78.6639V66.0556C78.6639 57.1742 82.1487 53.7576 91.1665 53.7576C93.9671 53.7576 96.2221 53.8258 97.5201 53.9622V38.7272C95.0605 38.043 89.0479 37.361 85.5631 37.361C67.1843 37.361 58.7121 46.0378 58.7121 64.7576V72H47.3711V88.808H58.7121V125.381C62.9669 126.437 67.4175 127 71.9979 127C74.2529 127 76.4771 126.861 78.6617 126.597V88.808H93.5425Z" fill="white"/>
</g>
</g>
<defs>
<clipPath id="clip0_784_39">
<rect width="144" height="144" fill="white"/>
</clipPath>
<clipPath id="clip1_784_39">
<rect width="110" height="110" fill="white" transform="translate(17 17)"/>
</clipPath>
</defs>
</svg>
