<svg width="144" height="144" viewBox="0 0 144 144" fill="none" xmlns="http://www.w3.org/2000/svg">
<g clip-path="url(#clip0_789_16)">
<path d="M72.03 144.06C111.811 144.06 144.06 111.811 144.06 72.03C144.06 32.2489 111.811 0 72.03 0C32.2489 0 0 32.2489 0 72.03C0 111.811 32.2489 144.06 72.03 144.06Z" fill="#F9F9F9"/>
<path fill-rule="evenodd" clip-rule="evenodd" d="M72 17C41.6125 17 17 41.6125 17 72C17 96.3375 32.7437 116.894 54.6062 124.181C57.3562 124.663 58.3875 123.013 58.3875 121.569C58.3875 120.263 58.3188 115.931 58.3188 111.325C44.5 113.869 40.925 107.956 39.825 104.863C39.2062 103.281 36.525 98.4 34.1875 97.0938C32.2625 96.0625 29.5125 93.5188 34.1188 93.45C38.45 93.3813 41.5438 97.4375 42.575 99.0875C47.525 107.406 55.4313 105.069 58.5938 103.625C59.075 100.05 60.5187 97.6438 62.1 96.2688C49.8625 94.8938 37.075 90.15 37.075 69.1125C37.075 63.1313 39.2063 58.1813 42.7125 54.3313C42.1625 52.9563 40.2375 47.3188 43.2625 39.7563C43.2625 39.7563 47.8688 38.3125 58.3875 45.3938C62.7875 44.1563 67.4625 43.5375 72.1375 43.5375C76.8125 43.5375 81.4875 44.1563 85.8875 45.3938C96.4063 38.2438 101.013 39.7563 101.013 39.7563C104.038 47.3188 102.113 52.9563 101.563 54.3313C105.069 58.1813 107.2 63.0625 107.2 69.1125C107.2 90.2188 94.3438 94.8938 82.1063 96.2688C84.1 97.9875 85.8188 101.288 85.8188 106.444C85.8188 113.8 85.75 119.713 85.75 121.569C85.75 123.013 86.7813 124.731 89.5313 124.181C111.256 116.894 127 96.2688 127 72C127 41.6125 102.388 17 72 17Z" fill="#1B1F23"/>
</g>
<defs>
<clipPath id="clip0_789_16">
<rect width="144" height="144" fill="white"/>
</clipPath>
</defs>
</svg>
