<svg width="144" height="144" viewBox="0 0 144 144" fill="none" xmlns="http://www.w3.org/2000/svg">
<g clip-path="url(#clip0_779_85)">
<path fill-rule="evenodd" clip-rule="evenodd" d="M72 27C96.8511 27 117 47.1489 117 72C117 96.8511 96.8511 117 72 117C47.1489 117 27 96.8511 27 72C27 47.1489 47.1489 27 72 27Z" fill="#2394E0"/>
<path fill-rule="evenodd" clip-rule="evenodd" d="M35.6133 95.2471C32.9619 91.2261 30.9771 86.7217 29.8125 81.895L37.7373 85.7183L37.7812 88.084C37.7812 88.9556 36.3018 90.8013 35.8257 91.5044L35.6133 95.2471ZM84.356 31.7607C99.4585 36.7778 110.789 50.0713 112.972 66.2578L111.543 66.104C111.287 67.2026 111.053 67.2246 111.053 68.543C111.053 69.7075 112.518 70.4839 112.518 72.9375C112.518 73.5967 110.972 74.9077 110.906 75.1421L108.614 72.4541V75.8745L108.27 75.8599L107.654 69.5464L106.373 69.9492L104.849 65.2544L99.832 70.4985L99.7734 74.3364L98.1328 75.4351L96.3896 65.5913L95.3496 66.353L92.9912 63.167L89.4683 63.2695L88.1206 61.7241L86.7363 62.105L84.019 58.9922L83.4917 59.3511L85.1763 63.6577H87.1318V62.6836H88.106C88.8091 64.6318 89.5708 63.4746 89.5708 64.6392C89.5708 68.7041 84.5537 71.6924 81.2651 72.4541C81.4409 73.1865 81.375 73.919 82.2393 73.919C84.0776 73.919 83.1621 73.5967 85.1689 73.4282C85.0737 77.5811 80.4082 82.5396 78.416 85.6231L79.3096 91.9878C79.5439 93.3721 76.4385 94.8296 75.3838 96.3897L75.8892 98.8286L74.4609 99.4072C74.2119 101.912 71.7803 104.688 69.0483 104.688H66.1187C66.1187 101.26 63.6724 96.3604 63.6724 93.936C63.6724 91.8779 64.6465 91.5996 64.6465 89.0508C64.6465 86.6924 62.2075 83.3159 62.2075 82.7007V78.7896H60.252C59.959 77.6982 60.1421 77.3247 58.7871 77.3247H58.2964C56.165 77.3247 56.5239 78.2988 54.3853 78.2988H52.4297C50.6646 78.2988 47.5444 72.6445 47.5444 71.9487V66.0894C47.5444 63.5625 49.8589 60.8086 51.4556 59.7393V57.3003L53.6528 55.0664L54.876 54.8613C57.498 54.8613 57.1831 53.3965 58.7871 53.3965H63.1816V56.8169L68.0156 58.8823L68.4697 56.7949C70.6597 57.3076 71.231 58.2817 73.9263 58.2817H74.9004C76.7534 58.2817 76.856 55.8208 76.856 53.8872L72.9448 54.2754L71.2383 50.5693L69.5464 51.0161C69.854 52.3418 70.0151 51.7925 70.0151 52.9131C70.0151 53.5723 69.4731 53.6455 69.0337 53.8872L67.3418 49.5952L63.7017 46.9951L63.2183 47.4712L66.3164 50.7305C65.9062 51.9023 65.855 55.2788 64.1484 52.9131L65.7451 52.144L61.7607 47.9692L59.373 48.8994L57.0146 51.1553C56.7656 52.9717 56.2749 53.8872 54.3706 53.8872C53.1035 53.8872 53.8652 53.5576 51.9243 53.3965V48.5112H56.3188L54.8906 45.2593L54.3633 45.5815V44.6001L61.5044 41.3115C61.3726 40.2861 61.2041 40.8355 61.2041 39.7148C61.2041 39.6489 61.6802 38.748 61.6948 38.7334L63.5405 39.8833L63.1011 37.7813L60.252 38.3672L59.7246 35.811C61.9805 34.6245 66.9536 30.4351 68.5356 30.4351H70.0005C71.5459 30.4351 75.6768 31.9585 76.3506 32.874L72.4321 32.4785L75.3398 34.8735L75.6182 33.8481L77.7861 33.2549L77.8154 31.8999H78.7969V33.3647L84.356 31.7607Z" fill="#A1E367"/>
</g>
<defs>
<clipPath id="clip0_779_85">
<rect width="90" height="90" fill="white" transform="translate(27 27)"/>
</clipPath>
</defs>
</svg>
