<svg width="144" height="144" viewBox="0 0 144 144" fill="none" xmlns="http://www.w3.org/2000/svg">
<g clip-path="url(#clip0_791_63)">
<g clip-path="url(#clip1_791_63)">
<path fill-rule="evenodd" clip-rule="evenodd" d="M72 0C111.762 0 144 32.2383 144 72C144 111.762 111.762 144 72 144C32.2383 144 0 111.762 0 72C0 32.2383 32.2383 0 72 0Z" fill="#2394E0"/>
<path fill-rule="evenodd" clip-rule="evenodd" d="M13.7812 109.195C9.53906 102.762 6.36328 95.5547 4.5 87.832L17.1797 93.9492L17.25 97.7344C17.25 99.1289 14.8828 102.082 14.1211 103.207L13.7812 109.195ZM91.7695 7.61719C115.934 15.6445 134.062 36.9141 137.555 62.8125L135.27 62.5664C134.859 64.3242 134.484 64.3594 134.484 66.4688C134.484 68.332 136.828 69.5742 136.828 73.5C136.828 74.5547 134.355 76.6524 134.25 77.0274L130.582 72.7266V78.1992L130.031 78.1758L129.047 68.0742L126.996 68.7188L124.559 61.207L116.531 69.5977L116.438 75.7383L113.813 77.4961L111.023 61.7461L109.359 62.9649L105.586 57.8672L99.9492 58.0313L97.793 55.5586L95.5781 56.168L91.2305 51.1875L90.3867 51.7617L93.082 58.6524H96.2109V57.0938H97.7695C98.8945 60.211 100.113 58.3594 100.113 60.2227C100.113 66.7266 92.0859 71.5078 86.8242 72.7266C87.1055 73.8985 87 75.0703 88.3828 75.0703C91.3242 75.0703 89.8594 74.5547 93.0703 74.2852C92.918 80.9297 85.4531 88.8633 82.2656 93.7969L83.6953 103.98C84.0703 106.195 79.1016 108.527 77.4141 111.023L78.2227 114.926L75.9375 115.852C75.5391 119.859 71.6484 124.301 67.2773 124.301H62.5898C62.5898 118.816 58.6758 110.977 58.6758 107.098C58.6758 103.805 60.2344 103.359 60.2344 99.2813C60.2344 95.5078 56.332 90.1055 56.332 89.1211V82.8633H53.2031C52.7344 81.1172 53.0273 80.5195 50.8594 80.5195H50.0742C46.6641 80.5195 47.2383 82.0781 43.8164 82.0781H40.6875C37.8633 82.0781 32.8711 73.0313 32.8711 71.918V62.543C32.8711 58.5 36.5742 54.0938 39.1289 52.3828V48.4805L42.6445 44.9063L44.6016 44.5781C48.7969 44.5781 48.293 42.2344 50.8594 42.2344H57.8906V47.707L65.625 51.0117L66.3516 47.6719C69.8555 48.4922 70.7695 50.0508 75.082 50.0508H76.6406C79.6055 50.0508 79.7695 46.1133 79.7695 43.0195L73.5117 43.6406L70.7812 37.7109L68.0742 38.4258C68.5664 40.5469 68.8242 39.668 68.8242 41.4609C68.8242 42.5156 67.957 42.6328 67.2539 43.0195L64.5469 36.1523L58.7227 31.9922L57.9492 32.7539L62.9062 37.9688C62.25 39.8438 62.168 45.2461 59.4375 41.4609L61.9922 40.2305L55.6172 33.5508L51.7969 35.0391L48.0234 38.6484C47.625 41.5547 46.8398 43.0195 43.793 43.0195C41.7656 43.0195 42.9844 42.4922 39.8789 42.2344V34.418H46.9102L44.625 29.2148L43.7812 29.7305V28.1602L55.207 22.8984C54.9961 21.2578 54.7266 22.1367 54.7266 20.3438C54.7266 20.2383 55.4883 18.7969 55.5117 18.7734L58.4648 20.6133L57.7617 17.25L53.2031 18.1875L52.3594 14.0977C55.9688 12.1992 63.9258 5.49609 66.457 5.49609H68.8008C71.2734 5.49609 77.8828 7.93359 78.9609 9.39844L72.6914 8.76563L77.3438 12.5977L77.7891 10.957L81.2578 10.0078L81.3047 7.83984H82.875V10.1836L91.7695 7.61719Z" fill="#A1E367"/>
</g>
</g>
<defs>
<clipPath id="clip0_791_63">
<rect width="144" height="144" fill="white"/>
</clipPath>
<clipPath id="clip1_791_63">
<rect width="144" height="144" fill="white"/>
</clipPath>
</defs>
</svg>
