<svg width="144" height="144" viewBox="0 0 144 144" fill="none" xmlns="http://www.w3.org/2000/svg">
<g clip-path="url(#clip0_779_85)">
<path fill-rule="evenodd" clip-rule="evenodd" d="M72 14C104.03 14 130 39.9697 130 72C130 104.03 104.03 130 72 130C39.9697 130 14 104.03 14 72C14 39.9697 39.9697 14 72 14Z" fill="#2394E0"/>
<path fill-rule="evenodd" clip-rule="evenodd" d="M25.1016 101.963C21.6842 96.7803 19.126 90.9746 17.625 84.7536L27.8392 89.6813L27.8958 92.7305C27.8958 93.8539 25.9889 96.2328 25.3753 97.139L25.1016 101.963ZM87.9255 20.1361C107.391 26.6025 121.995 43.7363 124.808 64.599L122.967 64.4007C122.637 65.8167 122.335 65.8451 122.335 67.5443C122.335 69.0453 124.223 70.0459 124.223 73.2083C124.223 74.058 122.231 75.7477 122.146 76.0498L119.191 72.5853V76.9938L118.747 76.9749L117.954 68.8376L116.302 69.3568L114.339 63.3057L107.872 70.0648L107.797 75.0114L105.682 76.4274L103.436 63.7399L102.095 64.7217L99.0553 60.6152L94.5147 60.7474L92.7777 58.7555L90.9935 59.2464L87.4912 55.2344L86.8115 55.697L88.9828 61.2477H91.5033V59.9922H92.7588C93.665 62.5033 94.6468 61.0117 94.6468 62.5127C94.6468 67.752 88.1803 71.6035 83.9417 72.5853C84.1683 73.5293 84.0833 74.4733 85.1973 74.4733C87.5667 74.4733 86.3867 74.058 88.9733 73.8408C88.8506 79.1934 82.8372 85.5843 80.2695 89.5586L81.4212 97.7621C81.7233 99.5462 77.7207 101.425 76.3613 103.436L77.0127 106.579L75.1719 107.325C74.8509 110.553 71.7168 114.131 68.1956 114.131H64.4196C64.4196 109.713 61.2666 103.398 61.2666 100.273C61.2666 97.6205 62.5221 97.2617 62.5221 93.9766C62.5221 90.9369 59.3786 86.585 59.3786 85.792V80.751H56.8581C56.4805 79.3444 56.7165 78.863 54.9701 78.863H54.3376C51.5905 78.863 52.0531 80.1185 49.2965 80.1185H46.776C44.501 80.1185 40.4795 72.8307 40.4795 71.9339V64.3818C40.4795 61.125 43.4626 57.5755 45.5205 56.1973V53.0537L48.3525 50.1745L49.929 49.9102C53.3086 49.9102 52.9027 48.0221 54.9701 48.0221H60.6341V52.4307L66.8646 55.0928L67.4499 52.4024C70.2725 53.0632 71.0088 54.3187 74.4827 54.3187H75.7383C78.1266 54.3187 78.2588 51.1468 78.2588 48.6546L73.2178 49.155L71.0182 44.3783L68.8376 44.9541C69.2341 46.6628 69.4417 45.9548 69.4417 47.3991C69.4417 48.2487 68.7432 48.3431 68.1768 48.6546L65.9961 43.1227L61.3044 39.7715L60.6813 40.3851L64.6745 44.5859C64.1458 46.0964 64.0798 50.4483 61.8802 47.3991L63.9382 46.4079L58.8027 41.027L55.7253 42.2259L52.6855 45.1335C52.3646 47.4746 51.7321 48.6546 49.2777 48.6546C47.6445 48.6546 48.6263 48.2298 46.1247 48.0221V41.7256H51.7887L49.9479 37.5342L49.2682 37.9496V36.6846L58.4723 32.446C58.3024 31.1244 58.0853 31.8324 58.0853 30.388C58.0853 30.3031 58.6989 29.1419 58.7178 29.1231L61.0967 30.6051L60.5303 27.8958L56.8581 28.651L56.1784 25.3565C59.0859 23.8272 65.4958 18.4274 67.5348 18.4274H69.4229C71.4147 18.4274 76.7389 20.391 77.6074 21.571L72.557 21.0612L76.3047 24.1481L76.6634 22.8265L79.4577 22.0619L79.4954 20.3154H80.7604V22.2035L87.9255 20.1361Z" fill="#A1E367"/>
</g>
<defs>
<clipPath id="clip0_779_85">
<rect width="116" height="116" fill="white" transform="translate(14 14)"/>
</clipPath>
</defs>
</svg>
