<svg width="144" height="144" viewBox="0 0 144 144" fill="none" xmlns="http://www.w3.org/2000/svg">
<g clip-path="url(#clip0_779_95)">
<g clip-path="url(#clip1_779_95)">
<rect width="144" height="144" rx="72" fill="url(#paint0_radial_779_95)"/>
<rect width="144" height="144" rx="72" fill="url(#paint1_radial_779_95)"/>
<path d="M72.0033 36.9C62.4706 36.9 61.2743 36.9417 57.5303 37.1121C53.7935 37.2832 51.2429 37.8748 49.0111 38.7428C46.7025 39.6393 44.7442 40.8385 42.7932 42.7902C40.8408 44.7412 39.6415 46.6995 38.7421 49.0073C37.8719 51.2398 37.2795 53.7911 37.1114 57.5264C36.9439 61.2704 36.9 62.4674 36.9 72C36.9 81.5326 36.9424 82.7252 37.1121 86.4692C37.2839 90.2059 37.8755 92.7565 38.7428 94.9883C39.64 97.2969 40.8393 99.2552 42.791 101.206C44.7413 103.159 46.6996 104.361 49.0067 105.257C51.24 106.125 53.7913 106.717 57.5273 106.888C61.2714 107.058 62.467 107.1 71.9989 107.1C81.5323 107.1 82.725 107.058 86.4691 106.888C90.2058 106.717 92.7593 106.125 94.9926 105.257C97.3004 104.361 99.2558 103.159 101.206 101.206C103.159 99.2552 104.358 97.2969 105.257 94.989C106.12 92.7565 106.712 90.2052 106.888 86.47C107.056 82.726 107.1 81.5326 107.1 72C107.1 62.4674 107.056 61.2711 106.888 57.5271C106.712 53.7904 106.12 51.2398 105.257 49.008C104.358 46.6995 103.159 44.7412 101.206 42.7902C99.2536 40.8378 97.3012 39.6385 94.9904 38.7428C92.7527 37.8748 90.2007 37.2832 86.4639 37.1121C82.7199 36.9417 81.5279 36.9 71.9923 36.9H72.0033ZM68.8545 43.2253C69.7891 43.2239 70.8318 43.2253 72.0033 43.2253C81.3751 43.2253 82.4859 43.259 86.1868 43.4271C89.6091 43.5836 91.4665 44.1555 92.7037 44.6359C94.3418 45.2721 95.5096 46.0326 96.7374 47.2611C97.9659 48.4896 98.7264 49.6596 99.364 51.2976C99.8445 52.5334 100.417 54.3908 100.573 57.813C100.741 61.5131 100.778 62.6246 100.778 71.992C100.778 81.3593 100.741 82.4708 100.573 86.1709C100.416 89.5931 99.8445 91.4505 99.364 92.6863C98.7278 94.3243 97.9659 95.4907 96.7374 96.7184C95.5089 97.9469 94.3425 98.7074 92.7037 99.3436C91.4679 99.8263 89.6091 100.397 86.1868 100.553C82.4866 100.721 81.3751 100.758 72.0033 100.758C62.6308 100.758 61.52 100.721 57.8198 100.553C54.3976 100.395 52.5402 99.8233 51.3021 99.3429C49.6641 98.7067 48.4941 97.9462 47.2656 96.7177C46.0371 95.4892 45.2766 94.3221 44.6389 92.6834C44.1585 91.4476 43.5859 89.5902 43.4302 86.168C43.262 82.4678 43.2283 81.3563 43.2283 71.9832C43.2283 62.61 43.262 61.5044 43.4302 57.8042C43.5866 54.382 44.1585 52.5246 44.6389 51.2873C45.2751 49.6493 46.0371 48.4793 47.2656 47.2508C48.4941 46.0223 49.6641 45.2618 51.3021 44.6242C52.5394 44.1416 54.3976 43.5712 57.8198 43.414C61.0579 43.2677 62.3127 43.2239 68.8545 43.2165V43.2253ZM90.7396 49.0534C88.4142 49.0534 86.5275 50.9378 86.5275 53.2639C86.5275 55.5893 88.4142 57.4759 90.7396 57.4759C93.065 57.4759 94.9516 55.5893 94.9516 53.2639C94.9516 50.9385 93.065 49.0519 90.7396 49.0519V49.0534ZM72.0033 53.9747C62.0487 53.9747 53.9778 62.0455 53.9778 72C53.9778 81.9545 62.0487 90.0217 72.0033 90.0217C81.9579 90.0217 90.0259 81.9545 90.0259 72C90.0259 62.0455 81.9579 53.9747 72.0033 53.9747ZM72.0033 60.3C78.4647 60.3 83.7034 65.5379 83.7034 72C83.7034 78.4613 78.4647 83.7 72.0033 83.7C65.5412 83.7 60.3032 78.4613 60.3032 72C60.3032 65.5379 65.5412 60.3 72.0033 60.3Z" fill="white"/>
</g>
</g>
<defs>
<radialGradient id="paint0_radial_779_95" cx="0" cy="0" r="1" gradientUnits="userSpaceOnUse" gradientTransform="translate(38.2502 155.091) rotate(-90) scale(142.715 132.736)">
<stop stop-color="#FFDD55"/>
<stop offset="0.1" stop-color="#FFDD55"/>
<stop offset="0.5" stop-color="#FF543E"/>
<stop offset="1" stop-color="#C837AB"/>
</radialGradient>
<radialGradient id="paint1_radial_779_95" cx="0" cy="0" r="1" gradientTransform="matrix(12.5213 62.5531 -257.841 51.6413 -24.1208 10.3735)" gradientUnits="userSpaceOnUse">
<stop stop-color="#3771C8"/>
<stop offset="0.128" stop-color="#3771C8"/>
<stop offset="1" stop-color="#6600FF" stop-opacity="0"/>
</radialGradient>
<clipPath id="clip0_779_95">
<rect width="144" height="144" fill="white"/>
</clipPath>
<clipPath id="clip1_779_95">
<rect width="144" height="144" fill="white"/>
</clipPath>
</defs>
</svg>
