<svg width="144" height="144" viewBox="0 0 144 144" fill="none" xmlns="http://www.w3.org/2000/svg">
<g clip-path="url(#clip0_779_95)">
<rect x="27" y="27" width="90" height="90" rx="45" fill="url(#paint0_radial_779_95)"/>
<rect x="27" y="27" width="90" height="90" rx="45" fill="url(#paint1_radial_779_95)"/>
<path d="M72.0021 50.0625C66.0441 50.0625 65.2964 50.0886 62.9564 50.195C60.6209 50.302 59.0268 50.6717 57.6319 51.2142C56.1891 51.7745 54.9651 52.5241 53.7458 53.7439C52.5255 54.9632 51.7759 56.1872 51.2138 57.6296C50.6699 59.0249 50.2997 60.6195 50.1946 62.954C50.0899 65.294 50.0625 66.0421 50.0625 72C50.0625 77.9579 50.089 78.7033 50.195 81.0433C50.3024 83.3787 50.6722 84.9728 51.2142 86.3677C51.775 87.8105 52.5246 89.0345 53.7444 90.2538C54.9633 91.4741 56.1872 92.2255 57.6292 92.7858C59.025 93.3283 60.6196 93.698 62.9546 93.805C65.2946 93.9114 66.0419 93.9375 71.9993 93.9375C77.9577 93.9375 78.7031 93.9114 81.0431 93.805C83.3786 93.698 84.9746 93.3283 86.3704 92.7858C87.8128 92.2255 89.0349 91.4741 90.2538 90.2538C91.4741 89.0345 92.2236 87.8105 92.7858 86.3681C93.3251 84.9728 93.6953 83.3783 93.805 81.0437C93.9101 78.7037 93.9375 77.9579 93.9375 72C93.9375 66.0421 93.9101 65.2944 93.805 62.9544C93.6953 60.619 93.3251 59.0249 92.7858 57.63C92.2236 56.1872 91.4741 54.9632 90.2538 53.7439C89.0335 52.5236 87.8132 51.7741 86.369 51.2142C84.9705 50.6717 83.3754 50.302 81.0399 50.195C78.6999 50.0886 77.955 50.0625 71.9952 50.0625H72.0021ZM70.0341 54.0158C70.6182 54.0149 71.2699 54.0158 72.0021 54.0158C77.8594 54.0158 78.5537 54.0368 80.8667 54.142C83.0057 54.2398 84.1665 54.5972 84.9398 54.8974C85.9636 55.2951 86.6935 55.7704 87.4608 56.5382C88.2287 57.306 88.704 58.0372 89.1025 59.061C89.4028 59.8334 89.7606 60.9942 89.858 63.1331C89.9631 65.4457 89.986 66.1404 89.986 71.995C89.986 77.8495 89.9631 78.5442 89.858 80.8568C89.7602 82.9957 89.4028 84.1566 89.1025 84.929C88.7049 85.9527 88.2287 86.6817 87.4608 87.449C86.693 88.2168 85.9641 88.6922 84.9398 89.0898C84.1674 89.3914 83.0057 89.7479 80.8667 89.8457C78.5541 89.9508 77.8594 89.9737 72.0021 89.9737C66.1442 89.9737 65.45 89.9508 63.1374 89.8457C60.9985 89.747 59.8376 89.3896 59.0638 89.0893C58.0401 88.6917 57.3088 88.2164 56.541 87.4486C55.7732 86.6808 55.2978 85.9513 54.8993 84.9271C54.599 84.1547 54.2412 82.9939 54.1438 80.855C54.0387 78.5424 54.0177 77.8477 54.0177 71.9895C54.0177 66.1313 54.0387 65.4402 54.1438 63.1277C54.2416 60.9887 54.599 59.8279 54.8993 59.0546C55.2969 58.0308 55.7732 57.2996 56.541 56.5318C57.3088 55.764 58.0401 55.2887 59.0638 54.8901C59.8371 54.5885 60.9985 54.232 63.1374 54.1337C65.1611 54.0423 65.9454 54.0149 70.0341 54.0103V54.0158ZM83.7122 57.6584C82.2589 57.6584 81.0797 58.8361 81.0797 60.2899C81.0797 61.7433 82.2589 62.9224 83.7122 62.9224C85.1656 62.9224 86.3448 61.7433 86.3448 60.2899C86.3448 58.8366 85.1656 57.6574 83.7122 57.6574V57.6584ZM72.0021 60.7342C65.7804 60.7342 60.7361 65.7784 60.7361 72C60.7361 78.2216 65.7804 83.2635 72.0021 83.2635C78.2237 83.2635 83.2662 78.2216 83.2662 72C83.2662 65.7784 78.2237 60.7342 72.0021 60.7342ZM72.0021 64.6875C76.0404 64.6875 79.3146 67.9612 79.3146 72C79.3146 76.0383 76.0404 79.3125 72.0021 79.3125C67.9632 79.3125 64.6895 76.0383 64.6895 72C64.6895 67.9612 67.9632 64.6875 72.0021 64.6875Z" fill="white"/>
</g>
<defs>
<radialGradient id="paint0_radial_779_95" cx="0" cy="0" r="1" gradientUnits="userSpaceOnUse" gradientTransform="translate(50.9064 123.932) rotate(-90) scale(89.1967 82.9599)">
<stop stop-color="#FFDD55"/>
<stop offset="0.1" stop-color="#FFDD55"/>
<stop offset="0.5" stop-color="#FF543E"/>
<stop offset="1" stop-color="#C837AB"/>
</radialGradient>
<radialGradient id="paint1_radial_779_95" cx="0" cy="0" r="1" gradientTransform="matrix(7.82583 39.0957 -161.151 32.2758 11.9245 33.4834)" gradientUnits="userSpaceOnUse">
<stop stop-color="#3771C8"/>
<stop offset="0.128" stop-color="#3771C8"/>
<stop offset="1" stop-color="#6600FF" stop-opacity="0"/>
</radialGradient>
<clipPath id="clip0_779_95">
<rect width="90" height="90" fill="white" transform="translate(27 27)"/>
</clipPath>
</defs>
</svg>
