<svg width="144" height="144" viewBox="0 0 144 144" fill="none" xmlns="http://www.w3.org/2000/svg">
<g clip-path="url(#clip0_819_2)">
<path d="M72.03 144.06C111.811 144.06 144.06 111.811 144.06 72.03C144.06 32.2489 111.811 0 72.03 0C32.2489 0 0 32.2489 0 72.03C0 111.811 32.2489 144.06 72.03 144.06Z" fill="#3C83FF"/>
<path fill-rule="evenodd" clip-rule="evenodd" d="M72.0216 30.1461C48.8961 30.1461 30.121 48.921 30.121 72.0466C30.121 95.1721 48.8961 113.947 72.0216 113.947C95.1471 113.947 113.922 95.1721 113.922 72.0466C113.922 48.921 95.1471 30.1461 72.0216 30.1461ZM72.0216 35.9927C91.9203 35.9927 108.075 52.1479 108.075 72.0466C108.075 91.9454 91.9203 108.101 72.0216 108.101C52.1228 108.101 35.9676 91.9454 35.9676 72.0466C35.9676 52.1479 52.1228 35.9927 72.0216 35.9927ZM82.9017 78.7075C80.6686 82.4644 76.5696 84.9858 71.8858 84.9858C64.8193 84.9858 59.0824 79.2488 59.0824 72.1824C59.0824 65.116 64.8193 59.379 71.8858 59.379C78.9522 59.379 84.6891 65.116 84.6891 72.1824C84.6891 73.7958 85.999 75.1057 87.6124 75.1057C89.2259 75.1057 90.5357 73.7958 90.5357 72.1824C90.5357 61.8892 82.1789 53.5325 71.8858 53.5325C61.5926 53.5325 53.2358 61.8892 53.2358 72.1824C53.2358 82.4757 61.5926 90.8324 71.8858 90.8324C78.7055 90.8324 84.676 87.1649 87.9275 81.6949C88.7518 80.308 88.2951 78.5126 86.9082 77.6883C85.5213 76.8639 83.7261 77.3206 82.9017 78.7075Z" fill="white" fill-opacity="0.5"/>
<path fill-rule="evenodd" clip-rule="evenodd" d="M108.075 72.0466C108.075 91.9454 91.9203 108.101 72.0216 108.101C52.1228 108.101 35.9676 91.9454 35.9676 72.0466C35.9676 52.1479 52.1228 35.9927 72.0216 35.9927C81.9709 35.9927 90.9841 40.032 97.5102 46.558C98.651 47.6989 100.503 47.6989 101.644 46.558C102.785 45.4172 102.785 43.5647 101.644 42.4239C94.0599 34.8394 83.5845 30.1461 72.0216 30.1461C48.8961 30.1461 30.121 48.921 30.121 72.0466C30.121 95.1721 48.8961 113.947 72.0216 113.947C95.1471 113.947 113.922 95.1721 113.922 72.0466C113.922 70.4332 112.612 69.1233 110.999 69.1233C109.385 69.1233 108.075 70.4332 108.075 72.0466ZM94.4798 92.4286C94.8267 92.482 95.182 92.5096 95.5437 92.5096C99.3832 92.5096 102.501 89.3924 102.501 85.5529C102.501 81.7133 99.3832 78.5961 95.5437 78.5961C93.938 78.5961 92.4586 79.1413 91.2805 80.0566L78.7584 73.2664C78.8138 72.913 78.8425 72.551 78.8425 72.1824C78.8425 68.3578 75.7496 65.25 71.9308 65.2257L71.8858 65.2256C68.0462 65.2256 64.929 68.3428 64.929 72.1824C64.929 76.022 68.0462 79.1392 71.8858 79.1392L71.9308 79.1391C73.2284 79.1309 74.4424 78.7665 75.4793 78.1391L88.5934 85.2503C88.589 85.3506 88.5869 85.4514 88.5869 85.5529C88.5869 86.8575 88.9468 88.0789 89.5729 89.123C85.1127 93.778 78.8354 96.6789 71.8858 96.6789C58.3657 96.6789 47.3892 85.7024 47.3892 72.1824C47.3892 58.6624 58.3657 47.6859 71.8858 47.6859C85.4058 47.6859 96.3823 58.6624 96.3823 72.1824C96.3823 73.7958 97.6922 75.1057 99.3056 75.1057C100.919 75.1057 102.229 73.7958 102.229 72.1824C102.229 55.4355 88.6326 41.8393 71.8858 41.8393C55.1389 41.8393 41.5426 55.4355 41.5426 72.1824C41.5426 88.9293 55.1389 102.526 71.8858 102.526C80.8565 102.526 88.9236 98.6251 94.4798 92.4286ZM71.8858 71.0722C71.273 71.0722 70.7756 71.5697 70.7756 72.1824C70.7756 72.7951 71.273 73.2926 71.8858 73.2926L71.9144 73.2923C72.2539 73.2837 72.5556 73.1224 72.7535 72.8746C72.7661 72.8574 72.7789 72.8405 72.7918 72.8238C72.9204 72.6427 72.996 72.4212 72.996 72.1824C72.996 71.5792 72.5139 71.0877 71.9144 71.0726L71.8858 71.0722Z" fill="white"/>
</g>
<defs>
<clipPath id="clip0_819_2">
<rect width="144" height="144" fill="white"/>
</clipPath>
</defs>
</svg>
