<svg width="144" height="144" viewBox="0 0 144 144" fill="none" xmlns="http://www.w3.org/2000/svg">
<g clip-path="url(#clip0_784_18)">
<path d="M72.03 144.06C111.811 144.06 144.06 111.811 144.06 72.03C144.06 32.2489 111.811 0 72.03 0C32.2489 0 0 32.2489 0 72.03C0 111.811 32.2489 144.06 72.03 144.06Z" fill="#F9F9F9"/>
<g clip-path="url(#clip1_784_18)">
<path d="M39.857 80.5902C39.857 83.8669 40.5442 86.3827 41.4425 87.9047C42.6202 89.8982 44.3768 90.7427 46.1675 90.7427C48.4773 90.7427 50.5903 90.1429 54.6624 84.2489C57.9246 79.5248 61.7685 72.8937 64.3549 68.7365L68.7349 61.6936C71.7776 56.8024 75.2993 51.365 79.3371 47.6794C82.6335 44.6712 86.1895 43 89.7682 43C95.7765 43 101.5 46.6438 105.88 53.4779C110.673 60.9625 113 70.3898 113 80.1186C113 85.9022 111.911 90.1518 110.057 93.5092C108.266 96.7561 104.776 100 98.9046 100V90.7427C103.932 90.7427 105.187 85.9082 105.187 80.3753C105.187 72.4908 103.43 63.7408 99.5605 57.4887C96.8144 53.0541 93.2557 50.3443 89.3405 50.3443C85.1059 50.3443 81.6982 53.6868 77.8686 59.6464C75.8325 62.8127 73.7423 66.6714 71.3955 71.0255L68.8119 75.8153C63.6221 85.4456 62.3075 87.6391 59.7125 91.259C55.1643 97.5976 51.2804 100 46.1675 100C40.1022 100 36.2669 97.2515 33.8915 93.1093C31.9524 89.734 31 85.3053 31 80.2589L39.857 80.5902Z" fill="#0081FB"/>
<path d="M37.9835 54.1314C42.0442 47.5809 47.9042 43 54.6253 43C58.5177 43 62.3873 44.2057 66.428 47.6585C70.848 51.4336 75.5588 57.6499 81.4359 67.895L83.5432 71.5716C88.6304 80.4409 91.5248 85.0039 93.2186 87.1556C95.3972 89.9191 96.9228 90.7427 98.9047 90.7427C103.932 90.7427 105.187 85.9082 105.187 80.3753L113 80.1186C113 85.9022 111.911 90.1518 110.057 93.5092C108.266 96.7561 104.776 100 98.9047 100C95.2546 100 92.0209 99.1704 88.4451 95.6399C85.6961 92.9302 82.4824 88.1165 80.0101 83.7893L72.6559 70.933C68.9659 64.4809 65.5811 59.6703 63.6221 57.4917C61.5148 55.1491 58.8057 52.3199 54.4828 52.3199C50.9839 52.3199 48.0125 54.8894 45.5259 58.8197L37.9835 54.1314Z" fill="url(#paint0_linear_784_18)"/>
<path d="M54.4828 52.3199C50.9839 52.3199 48.0125 54.8894 45.5259 58.8197C42.0099 64.3735 39.857 72.646 39.857 80.5902C39.857 83.8669 40.5442 86.3827 41.4425 87.9047L33.8915 93.1093C31.9524 89.734 31 85.3053 31 80.2589C31 71.0822 33.4067 61.5175 37.9835 54.1314C42.0442 47.5809 47.9042 43 54.6253 43L54.4828 52.3199Z" fill="url(#paint1_linear_784_18)"/>
</g>
</g>
<defs>
<linearGradient id="paint0_linear_784_18" x1="48.3946" y1="77.9162" x2="104.868" y2="80.6416" gradientUnits="userSpaceOnUse">
<stop stop-color="#0064E1"/>
<stop offset="0.4" stop-color="#0064E1"/>
<stop offset="0.83" stop-color="#0073EE"/>
<stop offset="1" stop-color="#0082FB"/>
</linearGradient>
<linearGradient id="paint1_linear_784_18" x1="43.8321" y1="84.4817" x2="43.8321" y2="62.6963" gradientUnits="userSpaceOnUse">
<stop stop-color="#0082FB"/>
<stop offset="1" stop-color="#0064E0"/>
</linearGradient>
<clipPath id="clip0_784_18">
<rect width="144" height="144" fill="white"/>
</clipPath>
<clipPath id="clip1_784_18">
<rect width="82" height="57" fill="white" transform="translate(31 43)"/>
</clipPath>
</defs>
</svg>
