<svg width="144" height="144" viewBox="0 0 144 144" fill="none" xmlns="http://www.w3.org/2000/svg">
<g clip-path="url(#clip0_784_18)">
<path d="M42.9929 79.6333C42.9929 82.5651 43.6131 84.8161 44.4237 86.1779C45.4865 87.9615 47.0717 88.7172 48.6878 88.7172C50.7722 88.7172 52.6791 88.1805 56.3539 82.9069C59.2978 78.68 62.7667 72.747 65.1008 69.0274L69.0535 62.7259C71.7993 58.3495 74.9774 53.4845 78.6213 50.1868C81.5961 47.4953 84.8051 46 88.0347 46C93.4568 46 98.6216 49.2603 102.574 55.3749C106.9 62.0717 109 70.5067 109 79.2114C109 84.3862 108.017 88.1885 106.344 91.1924C104.728 94.0975 101.578 97 96.2798 97V88.7172C100.817 88.7172 101.949 84.3915 101.949 79.441C101.949 72.3865 100.364 64.5576 96.8717 58.9636C94.3935 54.9958 91.1819 52.5713 87.6487 52.5713C83.8272 52.5713 80.7521 55.5618 77.296 60.8941C75.4586 63.7272 73.5723 67.1797 71.4544 71.0754L69.123 75.361C64.4394 83.9776 63.2531 85.9402 60.9113 89.1791C56.8068 94.8505 53.3018 97 48.6878 97C43.2142 97 39.753 94.5408 37.6094 90.8346C35.8595 87.8147 35 83.8521 35 79.3369L42.9929 79.6333Z" fill="#0081FB"/>
<path d="M41.3022 55.9597C44.9667 50.0987 50.255 46 56.3205 46C59.8331 46 63.3252 47.0787 66.9717 50.1681C70.9604 53.5459 75.2116 59.1078 80.5153 68.2744L82.4171 71.5641C87.008 79.4998 89.62 83.5825 91.1485 85.5076C93.1146 87.9802 94.4914 88.7172 96.2799 88.7172C100.817 88.7172 101.949 84.3915 101.949 79.441L109 79.2114C109 84.3862 108.017 88.1885 106.344 91.1924C104.728 94.0975 101.578 97 96.2799 97C92.9859 97 90.0677 96.2577 86.8407 93.0989C84.36 90.6744 81.4598 86.3674 79.2287 82.4957L72.5919 70.9927C69.262 65.2198 66.2074 60.9155 64.4395 58.9663C62.5377 56.8702 60.093 54.3389 56.1918 54.3389C53.0343 54.3389 50.3528 56.6379 48.1088 60.1545L41.3022 55.9597Z" fill="url(#paint0_linear_784_18)"/>
<path d="M56.1918 54.3389C53.0342 54.3389 50.3528 56.6379 48.1088 60.1545C44.9358 65.1237 42.9929 72.5253 42.9929 79.6333C42.9929 82.5651 43.6131 84.8161 44.4237 86.1779L37.6094 90.8346C35.8595 87.8147 35 83.8521 35 79.3369C35 71.1262 37.1719 62.5683 41.3022 55.9597C44.9667 50.0987 50.255 46 56.3204 46L56.1918 54.3389Z" fill="url(#paint1_linear_784_18)"/>
</g>
<defs>
<linearGradient id="paint0_linear_784_18" x1="50.6976" y1="77.2408" x2="101.66" y2="79.7214" gradientUnits="userSpaceOnUse">
<stop stop-color="#0064E1"/>
<stop offset="0.4" stop-color="#0064E1"/>
<stop offset="0.83" stop-color="#0073EE"/>
<stop offset="1" stop-color="#0082FB"/>
</linearGradient>
<linearGradient id="paint1_linear_784_18" x1="46.5802" y1="83.1152" x2="46.5802" y2="63.623" gradientUnits="userSpaceOnUse">
<stop stop-color="#0082FB"/>
<stop offset="1" stop-color="#0064E0"/>
</linearGradient>
<clipPath id="clip0_784_18">
<rect width="74" height="51" fill="white" transform="translate(35 46)"/>
</clipPath>
</defs>
</svg>
