<svg width="144" height="144" viewBox="0 0 144 144" fill="none" xmlns="http://www.w3.org/2000/svg">
<g clip-path="url(#clip0_794_2)">
<path d="M72.03 144.06C111.811 144.06 144.06 111.811 144.06 72.03C144.06 32.2489 111.811 0 72.03 0C32.2489 0 0 32.2489 0 72.03C0 111.811 32.2489 144.06 72.03 144.06Z" fill="#C56CF9"/>
<g clip-path="url(#clip1_794_2)">
<path d="M53.8908 94.8509L47.2664 101.314L47.0337 101.52C47.9146 103.328 48.1312 105.387 47.6455 107.338C47.1597 109.289 46.0026 111.007 44.3771 112.19C42.7517 113.373 40.7615 113.946 38.7558 113.809C36.7501 113.671 34.8568 112.832 33.4079 111.438C31.9591 110.044 31.0472 108.185 30.8322 106.186C30.6172 104.187 31.1128 102.176 32.2321 100.506C33.3514 98.8356 35.0229 97.6128 36.9535 97.0519C38.8842 96.491 40.9506 96.6277 42.7905 97.4381C42.8908 97.3014 43.0016 97.1727 43.1217 97.0532L48.7077 91.6101C49.3023 92.1631 49.9366 92.6718 50.6055 93.132C51.6281 93.834 52.731 94.411 53.8908 94.8509ZM86.2248 52.4436C87.051 52.466 87.869 52.6139 88.6507 52.8822C90.3972 53.4962 91.9442 54.573 93.1266 55.9976C94.4268 57.5149 95.2464 59.3847 95.4809 61.3691C95.5798 62.3037 95.5406 63.2479 95.3646 64.1711C96.1989 64.9311 96.9142 65.8123 97.4862 66.7852C98.3711 68.2632 98.8239 69.9598 98.7931 71.6822C98.7289 73.5009 98.1035 75.2552 97.0028 76.7044C96.2189 77.7473 95.2693 78.6546 94.1919 79.3902C94.281 81.7524 93.6095 84.0809 92.2762 86.0328C91.0119 87.9358 89.0735 89.2889 86.8514 89.8197C86.1953 91.9077 84.7809 93.6743 82.887 94.7713C80.9931 95.8683 78.757 96.2161 76.6195 95.7461C74.8352 95.2516 73.3174 94.0746 72.3942 92.4696C71.8578 93.3363 71.1526 94.0865 70.3207 94.6755C69.4888 95.2645 68.547 95.6803 67.5513 95.8983C66.4165 96.1088 65.2498 96.0731 64.1301 95.7936C63.0104 95.514 61.9638 94.9971 61.0612 94.2779L60.9269 94.1615C59.5814 93.1032 58.6168 91.6357 58.1787 89.9808C57.4923 89.9318 56.8151 89.7934 56.1645 89.569C54.455 88.9621 52.9336 87.919 51.7513 86.5431C50.4764 85.0822 49.6469 83.2865 49.3612 81.3686C49.2157 80.3421 49.2399 79.2987 49.4328 78.2801C48.6899 77.5939 48.0425 76.811 47.5081 75.9525L47.4365 75.7734C46.5532 74.3193 46.0885 72.6495 46.0937 70.9481C46.1254 69.0549 46.7517 67.2195 47.8841 65.702C48.6351 64.6733 49.541 63.7673 50.5697 63.0163C50.5697 62.7358 50.5697 62.4583 50.5697 62.1837C50.6473 59.8008 51.5024 57.5088 53.0046 55.6575C54.3041 54.0369 56.1385 52.9324 58.1787 52.542C58.2427 52.2932 58.3204 52.0482 58.4115 51.8079C59.0885 50.0416 60.3529 48.5621 61.9922 47.6182C63.6518 46.6278 65.6181 46.2836 67.5155 46.6514C69.4216 47.0588 71.0943 48.1922 72.1794 49.8116C73.2658 48.1936 74.9379 47.0606 76.8433 46.6514C78.5684 46.3104 80.3583 46.5661 81.9189 47.3765C83.4378 48.1435 84.6869 49.3551 85.4997 50.85C85.7726 51.3548 85.9859 51.8895 86.1352 52.4436H86.2248ZM74.471 53.9117V86.8564C74.6204 87.0873 74.7209 87.3462 74.7664 87.6174C75.214 90.3031 76.3688 91.6638 77.6579 92.013C78.3034 92.1458 78.9703 92.1345 79.611 91.9797C80.2516 91.825 80.8502 91.5306 81.3639 91.1177C81.8896 90.7841 82.3321 90.3349 82.6579 89.8043C82.9837 89.2737 83.1841 88.6758 83.2438 88.056C83.2438 86.7042 82.2323 85.1555 79.484 83.75C79.2572 83.6324 79.0556 83.4713 78.891 83.2758C78.7264 83.0804 78.6019 82.8544 78.5246 82.6109C78.4473 82.3673 78.4187 82.1109 78.4405 81.8563C78.4622 81.6016 78.534 81.3538 78.6515 81.1269C78.7691 80.9 78.9302 80.6985 79.1256 80.5339C79.321 80.3692 79.547 80.2447 79.7905 80.1674C80.0341 80.0901 80.2905 80.0615 80.5451 80.0833C80.7997 80.1051 81.0475 80.1768 81.2744 80.2943C84.3896 81.8879 86.0905 83.8753 86.7798 85.8269C87.7366 85.3999 88.5507 84.7069 89.1252 83.8305C90.1249 82.3527 90.5456 80.5585 90.3068 78.7903C90.2199 78.3927 90.2594 77.9779 90.42 77.6039C90.5805 77.2298 90.8539 76.9154 91.202 76.7044C92.2453 76.1258 93.1592 75.3398 93.8875 74.3947C94.5132 73.5834 94.8728 72.5984 94.917 71.5747C94.9276 70.5786 94.6611 69.5991 94.1471 68.7458C93.6199 67.8627 92.9196 67.0953 92.0882 66.4898C91.7356 66.2501 91.4712 65.9015 91.3354 65.4974C91.1996 65.0932 91.1999 64.6557 91.3363 64.2517C91.6095 63.4555 91.7043 62.6089 91.6138 61.7719C91.4646 60.5631 90.9598 59.4259 90.1636 58.5043C89.4285 57.6186 88.4706 56.9449 87.3885 56.5527C86.9793 56.4113 86.5502 56.3357 86.1173 56.3289C85.7682 57.3145 85.2368 58.2255 84.5508 59.0146C84.3874 59.2092 84.1872 59.3696 83.9618 59.4869C83.7364 59.6041 83.4901 59.6757 83.237 59.6978C82.9839 59.7198 82.7289 59.6918 82.4866 59.6152C82.2443 59.5387 82.0195 59.4152 81.8249 59.2518C81.6304 59.0884 81.4699 58.8883 81.3527 58.6628C81.2355 58.4374 81.1638 58.1911 81.1418 57.938C81.1198 57.6848 81.1478 57.4298 81.2243 57.1875C81.3008 56.9452 81.4243 56.7204 81.5877 56.5258C82.0792 56.0222 82.3985 55.3758 82.4999 54.6793C82.6012 53.9829 82.4793 53.2723 82.1517 52.6495C81.7035 51.854 81.0268 51.2115 80.2091 50.8053C79.4308 50.3897 78.5344 50.2508 77.6668 50.4114C76.4315 50.671 75.2319 51.7095 74.4531 53.8759L74.471 53.9117ZM82.098 64.9948C81.6801 64.6932 81.3992 64.238 81.3169 63.7293C81.2346 63.2206 81.3578 62.7001 81.6593 62.2822C81.9609 61.8643 82.416 61.5833 82.9247 61.5011C83.4334 61.4188 83.9539 61.542 84.3717 61.8435C84.7011 62.0836 85.0178 62.3406 85.3206 62.6134C87.423 64.4957 88.7211 67.1145 88.9461 69.9275C89.1533 72.6979 88.3626 75.451 86.7171 77.6892C86.4716 78.0308 86.2087 78.3595 85.9294 78.674C85.5851 79.0574 85.1026 79.2884 84.5881 79.3161C84.0735 79.3438 83.569 79.166 83.1856 78.8217C82.8022 78.4774 82.5712 77.9949 82.5435 77.4803C82.5158 76.9657 82.6937 76.4612 83.0379 76.0778C83.2617 75.8271 83.4407 75.6033 83.5929 75.4064C84.6717 73.907 85.1825 72.0731 85.0342 70.2319C84.8896 68.4132 84.0496 66.7202 82.6888 65.505C82.4919 65.326 82.277 65.1559 82.0622 64.9948H82.098ZM70.577 55.6306H70.5322H70.3711C69.637 52.6674 68.2406 51.3066 66.7904 51.0112C65.8261 50.8412 64.833 51.029 63.9974 51.5394C63.1376 52.0257 62.4685 52.7895 62.0996 53.7058C61.6699 54.8786 61.9385 56.3289 63.4245 57.7075C63.6108 57.8804 63.7613 58.0882 63.8673 58.3192C63.9733 58.5501 64.0328 58.7997 64.0423 59.0537C64.0519 59.3077 64.0113 59.561 63.923 59.7993C63.8346 60.0376 63.7002 60.2561 63.5274 60.4425C63.3546 60.6288 63.1468 60.7793 62.9158 60.8853C62.6849 60.9913 62.4353 61.0508 62.1813 61.0604C61.9274 61.0699 61.6741 61.0294 61.4358 60.941C61.1975 60.8527 60.979 60.7183 60.7926 60.5454C59.7195 59.5953 58.8957 58.3965 58.3936 57.054C57.4786 57.3827 56.6749 57.963 56.075 58.7281C55.1168 59.9225 54.5732 61.3962 54.5264 62.9268C54.5347 63.2084 54.5586 63.4893 54.598 63.7683C54.6486 64.1399 54.5911 64.5182 54.4323 64.858C54.2736 65.1977 54.0203 65.4845 53.7028 65.6841C52.6877 66.2813 51.7971 67.0685 51.0799 68.0028C50.4216 68.8605 50.049 69.9032 50.0146 70.9839C50.0214 71.9688 50.2935 72.9337 50.8024 73.777L50.883 73.8934C51.3868 74.6967 52.0401 75.3957 52.8076 75.9525C53.1515 76.1931 53.4086 76.5382 53.5408 76.9365C53.673 77.3348 53.6733 77.7652 53.5417 78.1637C53.2392 79.0247 53.1471 79.9455 53.2731 80.8494C53.4574 82.0255 53.9728 83.1247 54.7591 84.0185C55.4759 84.8677 56.4015 85.5156 57.4447 85.8985C57.7529 86.0021 58.0708 86.0741 58.3936 86.1134C59.0739 84.0006 60.8643 81.9237 64.1227 80.2943C64.5821 80.0569 65.117 80.0117 65.6097 80.1687C66.1025 80.3257 66.5127 80.672 66.7501 81.1314C66.9875 81.5908 67.0327 82.1258 66.8757 82.6185C66.7188 83.1113 66.3725 83.5215 65.9131 83.7589C63.0127 85.236 61.9206 86.9012 61.9206 88.3425C61.9447 88.8874 62.0888 89.4203 62.3425 89.9031C62.5963 90.386 62.9535 90.8068 63.3887 91.1357L63.4871 91.2162C63.945 91.5935 64.4781 91.8685 65.0509 92.0229C65.6237 92.1773 66.2229 92.2075 66.8083 92.1115C68.2495 91.816 69.646 90.4553 70.389 87.4741C70.4385 87.2814 70.517 87.0973 70.6217 86.928V55.6306H70.577ZM58.7874 62.9626C58.9636 62.7624 59.1793 62.6008 59.421 62.488C59.6626 62.3753 59.925 62.3137 60.1916 62.3072C60.4582 62.3007 60.7233 62.3494 60.9701 62.4503C61.217 62.5511 61.4403 62.702 61.6261 62.8933C61.8118 63.0847 61.956 63.3124 62.0495 63.5621C62.1431 63.8119 62.1839 64.0783 62.1696 64.3446C62.1552 64.6109 62.0859 64.8713 61.966 65.1095C61.8461 65.3478 61.6783 65.5586 61.473 65.7289C60.1819 66.997 59.4231 68.71 59.3514 70.5184C59.2877 72.4161 59.925 74.2709 61.1418 75.7286C61.4489 76.1314 61.5866 76.6381 61.5255 77.1408C61.4645 77.6436 61.2096 78.1027 60.815 78.4202C60.4205 78.7377 59.9175 78.8886 59.4134 78.8407C58.9092 78.7927 58.4437 78.5498 58.116 78.1637C56.3217 75.9705 55.389 73.198 55.4932 70.3662C55.598 67.5682 56.7742 64.9176 58.7785 62.9626H58.7874ZM25.5762 62.3807C27.3421 62.3835 29.0641 62.9321 30.5063 63.9514C31.9485 64.9706 33.0405 66.4106 33.6328 68.0744C33.746 68.0655 33.8598 68.0655 33.973 68.0744L40.6689 67.9849C40.4748 68.9369 40.3699 69.9049 40.3556 70.8765C40.3509 71.8807 40.4499 72.8827 40.651 73.8666L34.0625 73.9561C33.9134 73.9652 33.764 73.9652 33.6149 73.9561C33.0677 75.4223 32.1297 76.7108 30.9025 77.6821C29.6754 78.6533 28.2059 79.2702 26.6532 79.466C25.1006 79.6618 23.5239 79.4289 22.0941 78.7927C20.6644 78.1565 19.4359 77.1411 18.5419 75.8566C17.6478 74.5721 17.1223 73.0674 17.0222 71.5056C16.9221 69.9437 17.2513 68.3843 17.974 66.9961C18.6968 65.608 19.7856 64.4441 21.1224 63.6305C22.4593 62.817 23.9933 62.3847 25.5583 62.3807H25.5762ZM39.4604 30C41.7349 30 43.9162 30.9036 45.5245 32.5119C47.1328 34.1203 48.0363 36.3018 48.0363 38.5763C48.0427 40.0999 47.6375 41.5969 46.8636 42.9093L52.727 48.4956L52.4585 48.6567C50.9899 49.5577 49.6827 50.6985 48.5913 52.0317C48.4749 52.166 48.3675 52.3093 48.2601 52.4436L42.7458 47.1975C42.5717 47.0349 42.4184 46.8515 42.2892 46.6514C41.1096 47.0734 39.8519 47.2318 38.6045 47.1155C37.3571 46.9991 36.1504 46.6109 35.0691 45.9781C33.9879 45.3453 33.0584 44.4833 32.3461 43.4526C31.6337 42.422 31.1558 41.2478 30.946 40.0126C30.7362 38.7774 30.7995 37.5113 31.1315 36.3032C31.4635 35.0951 32.0562 33.9745 32.8678 33.0201C33.6794 32.0657 34.6902 31.3007 35.8292 30.7789C36.9682 30.2571 38.2077 29.9913 39.4604 30ZM104.943 96.8473C106.808 96.8423 108.624 97.4456 110.116 98.5659C111.608 99.6861 112.693 101.262 113.208 103.055C113.724 104.848 113.64 106.76 112.971 108.501C112.301 110.242 111.082 111.718 109.499 112.704C107.916 113.69 106.054 114.133 104.196 113.965C102.338 113.798 100.586 113.029 99.204 111.776C97.8224 110.522 96.8872 108.853 96.54 107.02C96.1929 105.187 96.4527 103.291 97.2803 101.619L97.0565 101.422L90.5933 95.3522C90.8081 95.0478 91.005 94.7345 91.193 94.4033C91.8659 94.0661 92.515 93.6832 93.1356 93.2574C93.8704 92.7386 94.5593 92.1575 95.1945 91.5206L101.147 97.0263C101.311 97.1842 101.458 97.3581 101.586 97.5455C102.661 97.0844 103.818 96.8468 104.988 96.8473H104.943ZM104.943 30.9489C107.171 31.0209 109.283 31.9565 110.833 33.5578C112.384 35.1592 113.251 37.3008 113.251 39.5298C113.251 41.7587 112.384 43.9003 110.833 45.5017C109.283 47.1031 107.171 48.0386 104.943 48.1106C103.729 48.1137 102.529 47.8541 101.425 47.3497C101.3 47.534 101.156 47.705 100.995 47.8599L97.0207 51.6826C96.2151 50.8063 95.3144 50.0226 94.3351 49.346C93.654 48.8757 92.9389 48.4568 92.1956 48.0927L96.8953 43.6165C97.0034 43.5086 97.1201 43.4098 97.2445 43.3211C96.5988 42.0129 96.2975 40.5616 96.3691 39.1045C96.4407 37.6474 96.8827 36.2327 97.6535 34.994C98.4242 33.7554 99.4981 32.7339 100.774 32.0261C102.049 31.3182 103.484 30.9475 104.943 30.9489ZM118.424 62.3807C119.992 62.3817 121.53 62.8125 122.87 63.6261C124.21 64.4398 125.301 65.6052 126.025 66.9957C126.749 68.3862 127.078 69.9486 126.977 71.5131C126.875 73.0776 126.346 74.5843 125.449 75.8694C124.551 77.1545 123.318 78.1689 121.884 78.8023C120.45 79.4357 118.869 79.6639 117.315 79.462C115.76 79.2602 114.29 78.636 113.066 77.6574C111.841 76.6788 110.908 75.3831 110.368 73.9113C110.234 73.9205 110.099 73.9205 109.965 73.9113H104.352C104.47 73.2187 104.539 72.5187 104.558 71.8165C104.601 70.515 104.466 69.2137 104.155 67.949H109.965C110.099 67.9398 110.234 67.9398 110.368 67.949C110.974 66.3001 112.072 64.8769 113.513 63.8716C114.953 62.8662 116.668 62.3271 118.424 62.327V62.3807Z" fill="black"/>
</g>
</g>
<defs>
<clipPath id="clip0_794_2">
<rect width="144" height="144" fill="white"/>
</clipPath>
<clipPath id="clip1_794_2">
<rect width="110" height="84" fill="white" transform="translate(17 30)"/>
</clipPath>
</defs>
</svg>
