<svg width="144" height="144" viewBox="0 0 144 144" fill="none" xmlns="http://www.w3.org/2000/svg">
<g clip-path="url(#clip0_779_7)">
<path d="M72.03 144.06C111.811 144.06 144.06 111.811 144.06 72.03C144.06 32.2489 111.811 0 72.03 0C32.2489 0 0 32.2489 0 72.03C0 111.811 32.2489 144.06 72.03 144.06Z" fill="#222222"/>
<g clip-path="url(#clip1_779_7)">
<path d="M71.9974 17.1814C41.7153 17.1814 17.1656 41.7304 17.1656 72.0124C17.1656 102.296 41.7153 126.843 71.9974 126.843C102.283 126.843 126.83 102.296 126.83 72.0124C126.83 41.7323 102.283 17.184 71.9967 17.184L71.9974 17.1814ZM97.1428 96.2635C96.1607 97.8742 94.0524 98.3849 92.4417 97.3963C79.5677 89.5326 63.3611 87.7516 44.2748 92.1123C42.4355 92.5314 40.6022 91.379 40.1831 89.5391C39.7621 87.6992 40.9099 85.8659 42.7537 85.4468C63.6406 80.673 81.5569 82.7296 96.0101 91.5623C97.6208 92.551 98.1315 94.6528 97.1428 96.2635ZM103.854 81.3317C102.617 83.3451 99.9845 83.9802 97.9744 82.7427C83.2357 73.6814 60.7689 71.0578 43.3358 76.3496C41.0749 77.0325 38.687 75.7583 38.0008 73.5014C37.3199 71.2405 38.5947 68.8571 40.8517 68.1696C60.7649 62.1275 85.5208 65.0543 102.446 75.4552C104.457 76.6927 105.092 79.3242 103.854 81.3317ZM104.43 65.785C86.7583 55.2885 57.6018 54.3234 40.7292 59.4443C38.0198 60.266 35.1546 58.7365 34.3335 56.0271C33.5124 53.3164 35.0406 50.4531 37.752 49.6294C57.1205 43.7496 89.3184 44.8857 109.665 56.964C112.107 58.4104 112.906 61.5579 111.459 63.9916C110.018 66.4286 106.862 67.232 104.433 65.785H104.43Z" fill="#1ED760"/>
</g>
</g>
<defs>
<clipPath id="clip0_779_7">
<rect width="144" height="144" fill="white"/>
</clipPath>
<clipPath id="clip1_779_7">
<rect width="110" height="110" fill="white" transform="translate(17 17)"/>
</clipPath>
</defs>
</svg>
