<svg width="144" height="144" viewBox="0 0 144 144" fill="none" xmlns="http://www.w3.org/2000/svg">
<g clip-path="url(#clip0_779_7)">
<path d="M72.03 144.06C111.811 144.06 144.06 111.811 144.06 72.03C144.06 32.2489 111.811 0 72.03 0C32.2489 0 0 32.2489 0 72.03C0 111.811 32.2489 144.06 72.03 144.06Z" fill="#222222"/>
<g clip-path="url(#clip1_779_7)">
<path d="M71.9978 26.1517C46.671 26.1517 26.1385 46.6836 26.1385 72.0104C26.1385 97.3383 46.671 117.869 71.9978 117.869C97.3274 117.869 117.858 97.3383 117.858 72.0104C117.858 46.6852 97.3274 26.1539 71.9973 26.1539L71.9978 26.1517ZM93.0286 92.2931C92.2071 93.6403 90.4438 94.0674 89.0967 93.2405C78.3294 86.6636 64.7747 85.1741 48.8116 88.8212C47.2734 89.1717 45.74 88.2079 45.3895 86.6691C45.0374 85.1303 45.9974 83.5969 47.5395 83.2465C65.0085 79.2538 79.993 80.9738 92.0812 88.3612C93.4283 89.1881 93.8555 90.946 93.0286 92.2931ZM98.6417 79.8047C97.6067 81.4886 95.4052 82.0198 93.724 80.9848C81.3971 73.4063 62.6067 71.212 48.0263 75.6378C46.1354 76.209 44.1382 75.1433 43.5643 73.2557C42.9948 71.3648 44.061 69.3714 45.9487 68.7964C62.6034 63.743 83.3083 66.1909 97.4643 74.8898C99.1455 75.9248 99.6767 78.1257 98.6417 79.8047ZM99.1236 66.802C84.3433 58.0231 59.9579 57.2159 45.8463 61.4989C43.5802 62.1861 41.1838 60.9069 40.4971 58.6408C39.8104 56.3737 41.0885 53.979 43.3562 53.29C59.5554 48.3724 86.4845 49.3225 103.501 59.4245C105.544 60.6342 106.212 63.2666 105.002 65.3021C103.797 67.3403 101.157 68.0122 99.1257 66.802H99.1236Z" fill="#1ED760"/>
</g>
</g>
<defs>
<clipPath id="clip0_779_7">
<rect width="144" height="144" fill="white"/>
</clipPath>
<clipPath id="clip1_779_7">
<rect width="92" height="92" fill="white" transform="translate(26 26)"/>
</clipPath>
</defs>
</svg>
