<svg width="144" height="144" viewBox="0 0 144 144" fill="none" xmlns="http://www.w3.org/2000/svg">
<g clip-path="url(#clip0_779_21)">
<g clip-path="url(#clip1_779_21)">
<path d="M72.03 144.06C111.811 144.06 144.06 111.811 144.06 72.03C144.06 32.2489 111.811 0 72.03 0C32.2489 0 0 32.2489 0 72.03C0 111.811 32.2489 144.06 72.03 144.06Z" fill="url(#paint0_linear_779_21)"/>
<path fill-rule="evenodd" clip-rule="evenodd" d="M32.5664 71.2503C53.5577 62.1341 67.5319 56.0766 74.5489 53.1379C94.5206 44.8013 98.7189 43.3619 101.418 43.302C102.017 43.302 103.337 43.4219 104.237 44.1416C104.956 44.7414 105.136 45.521 105.256 46.1208C105.376 46.7205 105.496 47.98 105.376 48.9396C104.297 60.3349 99.6185 87.9833 97.2195 100.698C96.1999 106.096 94.2207 107.895 92.3015 108.075C88.1033 108.435 84.9246 105.316 80.9063 102.677C74.5489 98.5389 71.0104 95.96 64.833 91.8817C57.696 87.2037 62.314 84.6247 66.3923 80.4265C67.4719 79.3469 85.8842 62.5539 86.2441 61.0546C86.304 60.8746 86.304 60.1549 85.8842 59.7951C85.4644 59.4352 84.8646 59.5552 84.3848 59.6751C83.7251 59.7951 73.6493 66.5123 54.0375 79.7668C51.1587 81.7459 48.5798 82.7055 46.2407 82.6456C43.6618 82.5856 38.7439 81.2062 35.0254 80.0067C30.5273 78.5673 26.9288 77.7876 27.2287 75.2686C27.4086 73.9492 29.2078 72.6297 32.5664 71.2503Z" fill="white"/>
</g>
</g>
<defs>
<linearGradient id="paint0_linear_779_21" x1="71.97" y1="0" x2="71.97" y2="142.92" gradientUnits="userSpaceOnUse">
<stop stop-color="#2AABEE"/>
<stop offset="1" stop-color="#229ED9"/>
</linearGradient>
<clipPath id="clip0_779_21">
<rect width="144" height="144" fill="white"/>
</clipPath>
<clipPath id="clip1_779_21">
<rect width="144" height="144" fill="white"/>
</clipPath>
</defs>
</svg>
