<svg width="144" height="144" viewBox="0 0 144 144" fill="none" xmlns="http://www.w3.org/2000/svg">
<g clip-path="url(#clip0_779_21)">
<path d="M72.0187 117.037C96.8819 117.037 117.037 96.8819 117.037 72.0187C117.037 47.1556 96.8819 27 72.0187 27C47.1556 27 27 47.1556 27 72.0187C27 96.8819 47.1556 117.037 72.0187 117.037Z" fill="url(#paint0_linear_779_21)"/>
<path fill-rule="evenodd" clip-rule="evenodd" d="M47.354 71.5314C60.4735 65.8338 69.2074 62.0479 73.5931 60.2112C86.0754 55.0008 88.6993 54.1012 90.3861 54.0637C90.7609 54.0637 91.5856 54.1387 92.1478 54.5885C92.5976 54.9633 92.7101 55.4506 92.7851 55.8255C92.86 56.2003 92.935 56.9875 92.86 57.5873C92.1853 64.7093 89.2615 81.9896 87.7622 89.9363C87.1249 93.3099 85.8879 94.4344 84.6884 94.5469C82.0645 94.7718 80.0779 92.8226 77.5664 91.1733C73.5931 88.5868 71.3815 86.975 67.5206 84.4261C63.0599 81.5023 65.9462 79.8905 68.4952 77.2666C69.1699 76.5918 80.6776 66.0962 80.9025 65.1591C80.94 65.0466 80.94 64.5968 80.6776 64.3719C80.4152 64.147 80.0404 64.222 79.7405 64.297C79.3282 64.3719 73.0308 68.5702 60.7734 76.8542C58.9741 78.0912 57.3623 78.691 55.9004 78.6535C54.2886 78.616 51.2149 77.7538 48.8908 77.0042C46.0795 76.1045 43.8305 75.6172 44.0179 74.0429C44.1303 73.2182 45.2549 72.3936 47.354 71.5314Z" fill="white"/>
</g>
<defs>
<linearGradient id="paint0_linear_779_21" x1="71.9813" y1="27" x2="71.9813" y2="116.325" gradientUnits="userSpaceOnUse">
<stop stop-color="#2AABEE"/>
<stop offset="1" stop-color="#229ED9"/>
</linearGradient>
<clipPath id="clip0_779_21">
<rect width="90" height="90" fill="white" transform="translate(27 27)"/>
</clipPath>
</defs>
</svg>
