<svg width="144" height="144" viewBox="0 0 144 144" fill="none" xmlns="http://www.w3.org/2000/svg">
<g clip-path="url(#clip0_794_27)">
<path d="M72.03 144.06C111.811 144.06 144.06 111.811 144.06 72.03C144.06 32.2489 111.811 0 72.03 0C32.2489 0 0 32.2489 0 72.03C0 111.811 32.2489 144.06 72.03 144.06Z" fill="#F9F9F9"/>
<g clip-path="url(#clip1_794_27)">
<path fill-rule="evenodd" clip-rule="evenodd" d="M79.8344 127.959C100.58 125.029 117.671 110.677 124.612 91.4397C124.065 91.6436 123.397 91.8845 122.599 92.1253C113.266 94.8926 106.718 89.94 105.398 89.0838C104.077 88.2364 102.662 86.8316 102.397 86.9055C101.544 92.2167 96.7156 99.5921 85.6947 102.938C79.6595 104.775 73.1624 104.817 68.5266 102.206L70.0555 106.06C70.6678 107.597 71.6947 110.118 72.3314 111.648C72.3314 111.648 76.3357 121.229 79.8344 127.959Z" fill="#76B83F"/>
<path fill-rule="evenodd" clip-rule="evenodd" d="M28.702 49.2584L45.2194 46.1659C46.7238 45.8899 48.3909 46.7478 48.9192 48.0717L60.2672 76.5339C61.8119 79.5017 62.1268 80.1574 63.1327 81.4233C63.1327 81.4233 70.968 92.6647 82.9126 89.9185C90.9665 88.069 94.7276 81.9929 94.9831 77.6697C95.2472 76.2825 94.8344 74.5367 94.1171 72.9069L80.5247 42.0237C79.9789 40.779 80.6262 39.5571 81.9522 39.3022L95.7265 36.723C96.9895 36.4962 98.4713 37.2838 99.0223 38.4882L114.077 70.8816C114.684 72.1773 115.914 74.2203 116.818 75.4105C116.818 75.4105 119.95 79.9306 124.967 79.0727C126.207 79.0727 127.621 78.3975 127.621 78.3975C127.841 76.381 127.958 74.3363 127.958 72.2582C127.958 41.1851 102.894 16 71.9721 16C41.0594 16 16 41.1851 16 72.2582C16 97.1919 32.1412 118.33 54.4961 125.71C52.9865 122.588 51.4593 119.137 50.2085 115.766L26.7183 52.3281C26.2022 50.9357 27.1066 49.5591 28.702 49.2584Z" fill="#76B83F"/>
</g>
</g>
<defs>
<clipPath id="clip0_794_27">
<rect width="144" height="144" fill="white"/>
</clipPath>
<clipPath id="clip1_794_27">
<rect width="112" height="112" fill="white" transform="translate(16 16)"/>
</clipPath>
</defs>
</svg>
