<svg width="144" height="144" viewBox="0 0 144 144" fill="none" xmlns="http://www.w3.org/2000/svg">
<g clip-path="url(#clip0_784_34)">
<g filter="url(#filter0_f_784_34)">
<path d="M44.4392 113.355L46.3015 114.449C54.1233 119.05 63.0916 121.484 72.2375 121.488H72.2566C100.343 121.488 123.201 98.8353 123.213 70.9929C123.218 57.5007 117.922 44.813 108.302 35.269C103.583 30.5621 97.9693 26.8298 91.7855 24.288C85.6018 21.7462 78.9709 20.4455 72.2766 20.4611C44.1684 20.4611 21.3096 43.1115 21.2996 70.9524C21.2858 80.4592 23.9866 89.7759 29.0897 97.8252L30.3021 99.7348L25.1534 118.367L44.4392 113.355ZM10.4331 132.802L19.1315 101.321C13.767 92.1078 10.9447 81.6561 10.9481 70.9483C10.9622 37.4504 38.463 10.1984 72.2575 10.1984C88.6568 10.2067 104.05 16.5328 115.626 28.0162C127.202 39.4996 133.572 54.7634 133.566 70.997C133.551 104.492 106.046 131.749 72.2566 131.749H72.23C61.9701 131.745 51.8885 129.194 42.9335 124.354L10.4331 132.802Z" fill="#B3B3B3"/>
</g>
<path d="M9.80396 132.177L18.5023 100.696C13.1286 91.4612 10.3059 80.985 10.3189 70.3238C10.3331 36.8259 37.8339 9.57402 71.6283 9.57402C88.0276 9.58228 103.42 15.9084 114.997 27.3918C126.573 38.8752 132.943 54.139 132.937 70.3726C132.922 103.868 105.417 131.125 71.6275 131.125H71.6008C61.3409 131.121 51.2593 128.569 42.3043 123.729L9.80396 132.177Z" fill="white"/>
<path d="M71.6467 19.8366C43.5385 19.8366 20.6797 42.4871 20.6697 70.328C20.6559 79.8348 23.3567 89.1514 28.4599 97.2008L29.6722 99.1112L24.5235 117.743L43.8101 112.731L45.6724 113.824C53.4942 118.426 62.4626 120.859 71.6084 120.864H71.6276C99.7142 120.864 122.573 98.2109 122.584 70.3684C122.605 63.7323 121.298 57.1579 118.738 51.0258C116.179 44.8938 112.418 39.3259 107.673 34.6446C102.954 29.9376 97.34 26.2052 91.1561 23.6634C84.9722 21.1216 78.3412 19.8209 71.6467 19.8366Z" fill="url(#paint0_linear_784_34)"/>
<path fill-rule="evenodd" clip-rule="evenodd" d="M56.3047 44.9262C55.1565 42.3979 53.9483 42.3467 52.8575 42.3029L49.9211 42.2674C48.8996 42.2674 47.2397 42.6474 45.8365 44.1671C44.4333 45.6869 40.4745 49.36 40.4745 56.8308C40.4745 64.3017 45.964 71.5206 46.7289 72.5349C47.4938 73.5492 57.3263 89.369 72.8974 95.4555C85.837 100.514 88.4701 99.5077 91.2799 99.2549C94.0896 99.0022 100.343 95.5819 101.619 92.036C102.895 88.4901 102.895 85.4522 102.513 84.8171C102.131 84.1819 101.109 83.8044 99.5758 83.0445C98.0426 82.2846 90.5124 78.6116 89.1084 78.1044C87.7043 77.5973 86.6836 77.3454 85.6612 78.8651C84.6388 80.3849 81.7066 83.8036 80.8125 84.8171C79.9184 85.8305 79.026 85.9577 77.4928 85.1986C75.9596 84.4396 71.0267 82.8356 65.1739 77.6625C60.6201 73.6376 57.5463 68.6669 56.6513 67.148C55.7564 65.629 56.5564 64.8064 57.3246 64.0498C58.0121 63.3692 58.8561 62.2764 59.6236 61.3902C60.391 60.5039 60.6435 59.8704 61.1534 58.8586C61.6634 57.8468 61.4092 56.958 61.0259 56.199C60.6427 55.4399 57.6663 47.9294 56.3047 44.9262Z" fill="white"/>
</g>
<defs>
<filter id="filter0_f_784_34" x="3.37111" y="3.13645" width="137.257" height="136.727" filterUnits="userSpaceOnUse" color-interpolation-filters="sRGB">
<feFlood flood-opacity="0" result="BackgroundImageFix"/>
<feBlend mode="normal" in="SourceGraphic" in2="BackgroundImageFix" result="shape"/>
<feGaussianBlur stdDeviation="3.531" result="effect1_foregroundBlur_784_34"/>
</filter>
<linearGradient id="paint0_linear_784_34" x1="70.5893" y1="25.8992" x2="71.097" y2="112.233" gradientUnits="userSpaceOnUse">
<stop stop-color="#57D163"/>
<stop offset="1" stop-color="#23B33A"/>
</linearGradient>
<clipPath id="clip0_784_34">
<rect width="144" height="144" fill="white"/>
</clipPath>
</defs>
</svg>
