<svg width="144" height="144" viewBox="0 0 144 144" fill="none" xmlns="http://www.w3.org/2000/svg">
<g clip-path="url(#clip0_784_34)">
<g filter="url(#filter0_f_784_34)">
<path d="M55.0105 97.1903L56.1585 97.8615C60.9802 100.686 66.5086 102.18 72.1464 102.182H72.1582C89.4719 102.182 103.562 88.2782 103.57 71.1887C103.573 62.9073 100.308 55.1197 94.3778 49.2617C91.469 46.3726 88.0085 44.0817 84.1966 42.5216C80.3847 40.9615 76.2972 40.1631 72.1706 40.1727C54.8436 40.1727 40.7525 54.0754 40.7464 71.1639C40.7379 76.9991 42.4027 82.7176 45.5485 87.6582L46.2959 88.8303L43.122 100.267L55.0105 97.1903ZM34.0479 109.126L39.4099 89.8037C36.103 84.149 34.3632 77.7337 34.3653 71.1613C34.374 50.6006 51.3266 33.8735 72.1588 33.8735C82.2679 33.8786 91.7566 37.7615 98.8928 44.8099C106.029 51.8584 109.955 61.2272 109.952 71.1913C109.942 91.7505 92.9873 108.481 72.1582 108.481H72.1418C65.8172 108.478 59.6025 106.912 54.0823 103.941L34.0479 109.126Z" fill="#B3B3B3"/>
</g>
<path d="M33.66 108.743L39.022 89.4204C35.7095 83.752 33.9695 77.3218 33.9775 70.7781C33.9862 50.2173 50.9388 33.4903 71.7709 33.4903C81.8801 33.4953 91.3688 37.3782 98.505 44.4267C105.641 51.4751 109.567 60.8439 109.564 70.808C109.555 91.3672 92.5995 108.097 71.7704 108.097H71.754C65.4294 108.095 59.2147 106.529 53.6945 103.558L33.66 108.743Z" fill="white"/>
<path d="M71.7822 39.7894C54.4552 39.7894 40.3642 53.6921 40.3581 70.7806C40.3495 76.6158 42.0144 82.3343 45.1602 87.275L45.9076 88.4476L42.7337 99.8839L54.6227 96.807L55.7707 97.4783C60.5923 100.303 66.1208 101.796 71.7586 101.799H71.7704C89.0841 101.799 103.175 87.895 103.182 70.8054C103.195 66.7322 102.389 62.6969 100.811 58.9331C99.2336 55.1693 96.9151 51.7518 93.99 48.8784C91.0811 45.9893 87.6205 43.6984 83.8086 42.1382C79.9966 40.5781 75.9089 39.7797 71.7822 39.7894Z" fill="url(#paint0_linear_784_34)"/>
<path fill-rule="evenodd" clip-rule="evenodd" d="M62.3249 55.1892C61.6171 53.6373 60.8723 53.6059 60.1999 53.579L58.3898 53.5572C57.7601 53.5572 56.7369 53.7904 55.8719 54.7233C55.0069 55.6561 52.5665 57.9106 52.5665 62.4962C52.5665 67.0817 55.9505 71.5127 56.422 72.1352C56.8935 72.7578 62.9546 82.4678 72.5532 86.2037C80.5297 89.3084 82.1529 88.6909 83.8849 88.5358C85.6169 88.3807 89.4719 86.2813 90.2583 84.1049C91.0447 81.9284 91.0452 80.0638 90.8094 79.6739C90.5737 79.2841 89.9439 79.0524 88.9988 78.586C88.0537 78.1195 83.4118 75.865 82.5463 75.5538C81.6808 75.2425 81.0516 75.0878 80.4213 76.0207C79.7911 76.9535 77.9836 79.0519 77.4324 79.6739C76.8813 80.296 76.3311 80.374 75.386 79.9081C74.4409 79.4422 71.4001 78.4577 67.7922 75.2825C64.9851 72.812 63.0902 69.7611 62.5386 68.8288C61.9869 67.8964 62.48 67.3915 62.9536 66.9271C63.3774 66.5094 63.8977 65.8386 64.3708 65.2947C64.8438 64.7507 64.9995 64.3618 65.3138 63.7408C65.6282 63.1197 65.4715 62.5742 65.2352 62.1083C64.999 61.6424 63.1642 57.0325 62.3249 55.1892Z" fill="white"/>
</g>
<defs>
<filter id="filter0_f_784_34" x="26.9859" y="26.8115" width="90.0278" height="89.3769" filterUnits="userSpaceOnUse" color-interpolation-filters="sRGB">
<feFlood flood-opacity="0" result="BackgroundImageFix"/>
<feBlend mode="normal" in="SourceGraphic" in2="BackgroundImageFix" result="shape"/>
<feGaussianBlur stdDeviation="3.531" result="effect1_foregroundBlur_784_34"/>
</filter>
<linearGradient id="paint0_linear_784_34" x1="71.1304" y1="43.5106" x2="71.4407" y2="96.5019" gradientUnits="userSpaceOnUse">
<stop stop-color="#57D163"/>
<stop offset="1" stop-color="#23B33A"/>
</linearGradient>
<clipPath id="clip0_784_34">
<rect width="90" height="89" fill="white" transform="translate(27 27)"/>
</clipPath>
</defs>
</svg>
