<svg width="144" height="144" viewBox="0 0 144 144" fill="none" xmlns="http://www.w3.org/2000/svg">
<g clip-path="url(#clip0_794_16)">
<path d="M72.03 144.06C111.811 144.06 144.06 111.811 144.06 72.03C144.06 32.2489 111.811 0 72.03 0C32.2489 0 0 32.2489 0 72.03C0 111.811 32.2489 144.06 72.03 144.06Z" fill="#040404"/>
<g clip-path="url(#clip1_794_16)">
<path fill-rule="evenodd" clip-rule="evenodd" d="M36.6225 36.4976C36.8642 36.8425 42.4617 44.9899 49.0615 54.6028C55.6612 64.2158 61.7654 73.1057 62.6263 74.3583C63.4872 75.6109 64.1916 76.6609 64.1916 76.6917C64.1916 76.7224 63.871 77.1177 63.4792 77.57C63.0874 78.0223 61.9837 79.3028 61.0268 80.4154C60.0698 81.528 58.4566 83.4032 57.4418 84.5826C56.4271 85.762 54.6419 87.8375 53.4747 89.1949C52.3075 90.5523 50.2086 92.9926 48.8105 94.6179C44.4862 99.645 43.8621 100.371 40.5703 104.205C38.8127 106.252 37.1272 108.21 36.8249 108.555C36.5226 108.9 36.2752 109.219 36.2752 109.263C36.2752 109.315 37.3792 109.343 39.3857 109.343H42.4962L45.9158 105.358C47.7966 103.166 49.652 101.009 50.0388 100.564C50.8752 99.6015 57.2539 92.1795 57.7901 91.5447C57.9953 91.3017 58.2935 90.9558 58.4527 90.776C58.6119 90.5962 59.8669 89.1382 61.2415 87.5361C62.616 85.9339 63.7785 84.5838 63.8245 84.5358C63.8707 84.4879 64.5983 83.6413 65.4417 82.6545C66.285 81.6678 67.001 80.8604 67.0328 80.8604C67.0647 80.8604 71.3967 87.1325 76.6596 94.7984C81.9224 102.464 86.3224 108.872 86.4373 109.038L86.6461 109.34L97.3155 109.342C106.09 109.343 107.978 109.324 107.944 109.237C107.909 109.144 102.797 101.688 89.6825 82.6001C80.2416 68.8591 78.9863 67.0126 79.0223 66.9189C79.0573 66.8278 80.3432 65.3238 88.7972 55.4862C90.2474 53.7988 92.2465 51.4713 93.2396 50.3142C94.2327 49.1571 95.2354 47.9919 95.4678 47.7249C95.7002 47.4579 96.9222 46.0378 98.1834 44.5691C99.4445 43.1005 101.588 40.605 102.948 39.0236C104.307 37.4423 105.469 36.0859 105.53 36.0095C105.634 35.8786 105.457 35.8705 102.481 35.8705H99.322L97.9168 37.5091C96.0466 39.6898 92.6658 43.6223 91.7058 44.7335C91.2817 45.2245 90.7526 45.8416 90.5301 46.1048C90.3076 46.3679 89.8685 46.8765 89.5545 47.2349C89.2404 47.5934 87.6578 49.4343 86.0374 51.3257C84.4171 53.2171 83.0692 54.7829 83.042 54.8051C83.0149 54.8274 82.6677 55.2301 82.2705 55.7001C81.5757 56.5223 80.8687 57.3452 77.626 61.1057C76.2027 62.7564 76.1297 62.8273 76.0097 62.6756C75.9406 62.5882 71.7695 56.5216 66.7405 49.1944L57.5968 35.8722L46.89 35.8713L36.1831 35.8705L36.6225 36.4976ZM44.979 40.8665C45.0595 40.9893 47.0599 43.857 49.4245 47.2394C53.9092 53.6542 71.5321 78.8768 82.8657 95.1018C86.4874 100.287 89.4947 104.574 89.5488 104.63C89.626 104.71 90.6805 104.728 94.4762 104.711L99.3053 104.69L86.6684 86.6055C79.718 76.6588 69.6551 62.2576 64.3063 54.6028L54.5812 40.6851L49.7071 40.6642L44.833 40.6433L44.979 40.8665Z" fill="#FAFAFA"/>
<path fill-rule="evenodd" clip-rule="evenodd" d="M12 72.0001V132L72.0202 131.98L132.04 131.96L132.061 71.9798L132.081 12H72.0405H12V72.0001ZM12.0402 72.0405C12.0402 105.04 12.0494 118.54 12.0607 102.04C12.0719 85.5404 12.0719 58.5404 12.0607 42.0405C12.0494 25.5404 12.0402 39.0405 12.0402 72.0405ZM36.6224 36.4976C36.8641 36.8425 42.4616 44.9899 49.0614 54.6028C55.6611 64.2158 61.7653 73.1057 62.6262 74.3583C63.4871 75.6109 64.1915 76.6609 64.1915 76.6917C64.1915 76.7224 63.8709 77.1177 63.4791 77.57C63.0873 78.0223 61.9837 79.3028 61.0268 80.4154C60.0697 81.528 58.4565 83.4032 57.4417 84.5826C56.427 85.762 54.6418 87.8375 53.4746 89.1949C52.3075 90.5523 50.2086 92.9926 48.8104 94.6179C44.4861 99.645 43.8621 100.371 40.5703 104.205C38.8126 106.252 37.1271 108.21 36.8248 108.555C36.5225 108.9 36.2751 109.219 36.2751 109.263C36.2751 109.315 37.3792 109.343 39.3857 109.343H42.4961L45.9157 105.358C47.7966 103.166 49.6519 101.009 50.0387 100.564C50.8751 99.6015 57.2538 92.1795 57.79 91.5447C57.9953 91.3017 58.2935 90.9558 58.4526 90.776C58.6119 90.5962 59.8668 89.1382 61.2414 87.5361C62.616 85.9339 63.7784 84.5838 63.8245 84.5358C63.8706 84.4879 64.5983 83.6413 65.4416 82.6545C66.2849 81.6678 67.0009 80.8604 67.0327 80.8604C67.0646 80.8604 71.3966 87.1325 76.6595 94.7984C81.9224 102.464 86.3223 108.872 86.4372 109.038L86.646 109.34L97.3155 109.342C106.09 109.343 107.978 109.324 107.944 109.237C107.909 109.144 102.797 101.688 89.6824 82.6001C80.2416 68.8591 78.9862 67.0126 79.0222 66.9189C79.0572 66.8278 80.3431 65.3238 88.7972 55.4862C90.2474 53.7988 92.2464 51.4713 93.2395 50.3142C94.2326 49.1571 95.2353 47.9919 95.4677 47.7249C95.7001 47.4579 96.9221 46.0378 98.1833 44.5691C99.4444 43.1005 101.588 40.605 102.948 39.0236C104.307 37.4423 105.469 36.0859 105.53 36.0095C105.634 35.8786 105.457 35.8705 102.481 35.8705H99.322L97.9168 37.5091C96.0465 39.6898 92.6657 43.6223 91.7057 44.7335C91.2816 45.2245 90.7525 45.8416 90.53 46.1048C90.3075 46.3679 89.8684 46.8765 89.5544 47.2349C89.2404 47.5934 87.6577 49.4343 86.0373 51.3257C84.417 53.2171 83.0691 54.7829 83.0419 54.8051C83.0148 54.8274 82.6676 55.2301 82.2704 55.7001C81.5756 56.5223 80.8686 57.3452 77.6259 61.1057C76.2026 62.7564 76.1296 62.8273 76.0096 62.6756C75.9406 62.5882 71.7694 56.5216 66.7404 49.1944L57.5968 35.8722L46.8899 35.8713L36.183 35.8705L36.6224 36.4976ZM44.979 40.8665C45.0594 40.9893 47.0598 43.857 49.4245 47.2394C53.9091 53.6542 71.5321 78.8768 82.8656 95.1018C86.4873 100.287 89.4947 104.574 89.5487 104.63C89.6259 104.71 90.6804 104.728 94.4761 104.711L99.3052 104.69L86.6683 86.6055C79.718 76.6588 69.655 62.2576 64.3062 54.6028L54.5811 40.6851L49.707 40.6642L44.8329 40.6433L44.979 40.8665Z" fill="#040404"/>
</g>
</g>
<defs>
<clipPath id="clip0_794_16">
<rect width="144" height="144" fill="white"/>
</clipPath>
<clipPath id="clip1_794_16">
<rect x="12" y="12" width="120" height="120" rx="60" fill="white"/>
</clipPath>
</defs>
</svg>
