<svg width="144" height="144" viewBox="0 0 144 144" fill="none" xmlns="http://www.w3.org/2000/svg">
<g clip-path="url(#clip0_780_132)">
<path d="M36.8618 102.065C32.9829 100.998 29.9597 97.8599 28.8407 93.9892C27 86.8492 27 71.9654 27 71.9654C27 71.9654 27 57.084 28.8407 50.0108C29.9574 46.0733 32.9829 43.0021 36.8618 41.9353C43.8297 40 71.9671 40 71.9671 40C71.9671 40 100.17 40 107.138 41.9353C111.083 43.0021 114.04 46.0733 115.093 50.0108C117 57.084 117 71.9654 117 71.9654C117 71.9654 117 86.8469 115.093 93.9892C114.04 97.8599 111.083 100.996 107.138 102.065C100.17 104 71.9671 104 71.9671 104C71.9671 104 43.8297 104 36.8618 102.065ZM63.0268 85.7133L86.366 71.9654L63.0268 58.2844V85.7133Z" fill="#FF0033"/>
<path d="M63.0267 85.7133L86.366 71.9654L63.0267 58.2844V85.7133Z" fill="white"/>
</g>
<defs>
<clipPath id="clip0_780_132">
<rect width="90" height="64" fill="white" transform="translate(27 40)"/>
</clipPath>
</defs>
</svg>
